<?xml version="1.0" ?><svg id="Layer_1" style="enable-background:new 0 0 24 24;" version="1.1" viewBox="0 0 24 24" xml:space="preserve" xmlns="http://www.w3.org/2000/svg" xmlns:xlink="http://www.w3.org/1999/xlink"><path d="M21,14V4c0-0.55-0.45-1-1-1H4C3.45,3,3,3.45,3,4v10c-0.55,0-1,0.45-1,1c0,3.31,2.69,6,6,6h8c3.31,0,6-2.69,6-6  C22,14.45,21.55,14,21,14z M5,5h14v9h-4.5h-5H5V5z M16,19H8c-1.86,0-3.43-1.28-3.87-3H9.5v1c0,0.55,0.45,1,1,1h3c0.55,0,1-0.45,1-1  v-1h5.37C19.43,17.72,17.86,19,16,19z"/><path d="M9,8C8.45,8,8,8.45,8,9v2H7c-0.55,0-1,0.45-1,1s0.45,1,1,1h10c0.55,0,1-0.45,1-1s-0.45-1-1-1h-1V7c0-0.55-0.45-1-1-1  s-1,0.45-1,1v4h-1V8c0-0.55-0.45-1-1-1s-1,0.45-1,1v3h-1V9C10,8.45,9.55,8,9,8z"/></svg>