<?xml version="1.0" encoding="utf-8"?>
<!-- Generator: Adobe Illustrator 27.5.0, SVG Export Plug-In . SVG Version: 6.00 Build 0)  -->
<svg version="1.1" xmlns="http://www.w3.org/2000/svg" xmlns:xlink="http://www.w3.org/1999/xlink" x="0px" y="0px"
	 viewBox="0 0 750 500" style="enable-background:new 0 0 750 500;" xml:space="preserve">
<g id="BACKGROUND">
	<rect style="fill:#D7E4FF;" width="750" height="500"/>
</g>
<g id="OBJECTS">
	<g>
		<path style="opacity:0.6;fill:#AFB7F3;" d="M732.34,441.82c0,3.616-159.987,6.548-357.34,6.548s-357.34-2.931-357.34-6.548
			c0-3.616,159.987-6.548,357.34-6.548S732.34,438.204,732.34,441.82z"/>
		<g>
			<g>
				<path style="fill:#AFB7F3;" d="M680.741,441.82H491.022V142.15c0-5.446,4.415-9.86,9.86-9.86h169.999
					c5.446,0,9.86,4.415,9.86,9.86V441.82z"/>
				
					<rect x="523.932" y="129.381" transform="matrix(-1.836970e-16 1 -1 -1.836970e-16 800.1219 -371.6418)" style="fill:#CFDCFF;" width="123.9" height="169.719"/>
				<path style="fill:#ABAFF4;" d="M534.648,187.593l-8.405-12.286v-19.402v-0.296h0.274c0.232,0,0.42-0.188,0.42-0.42
					c0-0.232-0.188-0.42-0.42-0.42h-4.912c-0.232,0-0.42,0.188-0.42,0.42c0,0.232,0.188,0.42,0.42,0.42h0.274v0.296v19.402
					l-8.405,12.286c-0.858,1.254,0.04,2.957,1.56,2.957h12.588h5.465C534.608,190.549,535.506,188.847,534.648,187.593z"/>
				<path style="fill:#C1CAFF;" d="M621.344,187.838l-9.181-20.982v-7.158v-0.294h0.273c0.23,0,0.417-0.187,0.417-0.417
					c0-0.23-0.187-0.417-0.417-0.417h-4.884c-0.23,0-0.417,0.187-0.417,0.417c0,0.23,0.187,0.417,0.417,0.417h0.273v0.294v7.158
					l-9.181,20.982c-0.56,1.279,0.377,2.711,1.773,2.711h13.721h5.434C620.966,190.549,621.903,189.117,621.344,187.838z"/>
				<path style="fill:#C1CAFF;" d="M545.219,187.591l-8.41-12.294V170.1v-0.296h0.275c0.232,0,0.42-0.188,0.42-0.42
					c0-0.232-0.188-0.42-0.42-0.42h-4.915c-0.232,0-0.42,0.188-0.42,0.42c0,0.232,0.188,0.42,0.42,0.42h0.275v0.296v5.197
					l-8.41,12.294c-0.859,1.255,0.04,2.959,1.561,2.959h12.596h5.468C545.179,190.549,546.078,188.846,545.219,187.591z"/>
				<path style="fill:#ABAFF4;" d="M612.246,170.389h21.391c0,0.827-0.67,1.497-1.497,1.497h-3.303v0.259v16.701
					c0,0.941-0.763,1.703-1.703,1.703H617.5h-2.964h-0.351c-0.94,0-1.703-0.762-1.703-1.703v-16.701v-0.259h-0.235
					c-0.413,0-0.749-0.335-0.749-0.749l0,0C611.498,170.724,611.833,170.389,612.246,170.389z"/>
				<rect x="576.475" y="152.29" style="fill:#AFB7F3;" width="18.813" height="123.9"/>
				<g>
					<g>
						<polygon style="opacity:0.25;fill:#FFFFFF;" points="554.028,152.29 527.088,190.549 532.457,190.549 559.397,152.29 						
							"/>
						<polygon style="opacity:0.25;fill:#FFFFFF;" points="501.017,177.418 518.711,152.29 513.343,152.29 501.017,169.794 						
							"/>
						<polygon style="opacity:0.25;fill:#FFFFFF;" points="563.779,152.29 536.839,190.549 549.208,190.549 576.148,152.29 						
							"/>
						<polygon style="opacity:0.25;fill:#FFFFFF;" points="576.475,176.019 566.244,190.549 576.475,190.549 						"/>
					</g>
					<g>
						<polygon style="opacity:0.25;fill:#FFFFFF;" points="554.028,195.111 527.088,233.37 532.457,233.37 559.397,195.111 						
							"/>
						<polygon style="opacity:0.25;fill:#FFFFFF;" points="501.017,220.239 518.711,195.111 513.343,195.111 501.017,212.615 						
							"/>
						<polygon style="opacity:0.25;fill:#FFFFFF;" points="563.779,195.111 536.839,233.37 549.208,233.37 576.148,195.111 						
							"/>
						<polygon style="opacity:0.25;fill:#FFFFFF;" points="576.475,218.84 566.244,233.37 576.475,233.37 						"/>
					</g>
					<g>
						<polygon style="opacity:0.25;fill:#FFFFFF;" points="554.028,237.931 527.088,276.19 532.457,276.19 559.397,237.931 						
							"/>
						<polygon style="opacity:0.25;fill:#FFFFFF;" points="501.017,263.059 518.711,237.931 513.343,237.931 501.017,255.435 						
							"/>
						<polygon style="opacity:0.25;fill:#FFFFFF;" points="563.779,237.931 536.839,276.19 549.208,276.19 576.148,237.931 						
							"/>
						<polygon style="opacity:0.25;fill:#FFFFFF;" points="576.475,261.66 566.244,276.19 576.475,276.19 						"/>
					</g>
					<path style="fill:#A2A9EA;" d="M498.022,149.29v129.9h81.453v-129.9H498.022z M576.475,276.19h-75.453v-123.9h75.453V276.19z"
						/>
				</g>
				<g>
					<g>
						<polygon style="opacity:0.25;fill:#FFFFFF;" points="648.294,152.29 621.354,190.549 626.723,190.549 653.663,152.29 						
							"/>
						<polygon style="opacity:0.25;fill:#FFFFFF;" points="595.283,177.418 612.977,152.29 607.609,152.29 595.283,169.794 						
							"/>
						<polygon style="opacity:0.25;fill:#FFFFFF;" points="658.045,152.29 631.105,190.549 643.474,190.549 670.414,152.29 						
							"/>
						<polygon style="opacity:0.25;fill:#FFFFFF;" points="670.741,176.019 660.51,190.549 670.741,190.549 						"/>
					</g>
					<g>
						<polygon style="opacity:0.25;fill:#FFFFFF;" points="648.294,195.11 621.354,233.37 626.723,233.37 653.663,195.11 						"/>
						<polygon style="opacity:0.25;fill:#FFFFFF;" points="595.283,220.238 612.977,195.11 607.609,195.11 595.283,212.614 						
							"/>
						<polygon style="opacity:0.25;fill:#FFFFFF;" points="658.045,195.11 631.105,233.37 643.474,233.37 670.414,195.11 						"/>
						<polygon style="opacity:0.25;fill:#FFFFFF;" points="670.741,218.84 660.51,233.37 670.741,233.37 						"/>
					</g>
					<g>
						<polygon style="opacity:0.25;fill:#FFFFFF;" points="648.294,237.931 621.354,276.19 626.723,276.19 653.663,237.931 						
							"/>
						<polygon style="opacity:0.25;fill:#FFFFFF;" points="595.283,263.059 612.977,237.931 607.609,237.931 595.283,255.435 						
							"/>
						<polygon style="opacity:0.25;fill:#FFFFFF;" points="658.045,237.931 631.105,276.19 643.474,276.19 670.414,237.931 						
							"/>
						<polygon style="opacity:0.25;fill:#FFFFFF;" points="670.741,261.66 660.51,276.19 670.741,276.19 						"/>
					</g>
					<path style="fill:#A2A9EA;" d="M592.288,149.29v129.9h81.453v-129.9H592.288z M670.741,276.19h-75.453v-123.9h75.453V276.19z"
						/>
				</g>
				<rect x="501.022" y="190.549" style="fill:#A2A9EA;" width="169.719" height="4.561"/>
				<rect x="501.022" y="233.37" style="fill:#A2A9EA;" width="169.719" height="4.561"/>
				<g>
					<g>
						<path style="fill:#C1CAFF;" d="M629.664,205.918h-5.185c-0.227,0-0.411,0.184-0.411,0.411c0,0.227,0.184,0.411,0.411,0.411
							h0.393v21.879c0,1.215,0.985,2.2,2.2,2.2l0,0c1.215,0,2.2-0.985,2.2-2.2v-21.879h0.393c0.227,0,0.411-0.184,0.411-0.411
							C630.074,206.102,629.89,205.918,629.664,205.918z"/>
						<path style="fill:#C1CAFF;" d="M637.347,205.918h-5.185c-0.227,0-0.411,0.184-0.411,0.411c0,0.227,0.184,0.411,0.411,0.411
							h0.393v21.879c0,1.215,0.985,2.2,2.2,2.2c1.215,0,2.2-0.985,2.2-2.2v-21.879h0.393c0.227,0,0.411-0.184,0.411-0.411
							C637.758,206.102,637.574,205.918,637.347,205.918z"/>
						<path style="fill:#C1CAFF;" d="M645.03,205.918h-5.185c-0.227,0-0.411,0.184-0.411,0.411c0,0.227,0.184,0.411,0.411,0.411
							h0.393v21.879c0,1.215,0.985,2.2,2.2,2.2s2.2-0.985,2.2-2.2v-21.879h0.393c0.227,0,0.411-0.184,0.411-0.411
							C645.441,206.102,645.257,205.918,645.03,205.918z"/>
						<path style="fill:#C1CAFF;" d="M652.714,205.918h-5.185c-0.227,0-0.411,0.184-0.411,0.411c0,0.227,0.184,0.411,0.411,0.411
							h0.393v21.879c0,1.215,0.985,2.2,2.2,2.2c1.215,0,2.2-0.985,2.2-2.2v-21.879h0.393c0.227,0,0.411-0.184,0.411-0.411
							C653.124,206.102,652.94,205.918,652.714,205.918z"/>
					</g>
					<path style="fill:#ABAFF4;" d="M655.258,230.818v-19.591v-0.91h-0.91h-31.505h-0.91v0.91v19.591h-2.374v2.552h38.072v-2.552
						H655.258z M622.844,230.818v-19.591h31.505v19.591H622.844z"/>
				</g>
				<g>
					<g>
						<path style="fill:#C1CAFF;" d="M531.106,248.739h-5.185c-0.227,0-0.411,0.184-0.411,0.411c0,0.227,0.184,0.411,0.411,0.411
							h0.393v21.878c0,1.215,0.985,2.2,2.2,2.2l0,0c1.215,0,2.2-0.985,2.2-2.2V249.56h0.393c0.227,0,0.411-0.184,0.411-0.411
							C531.516,248.923,531.332,248.739,531.106,248.739z"/>
						<path style="fill:#C1CAFF;" d="M538.789,248.739h-5.185c-0.227,0-0.411,0.184-0.411,0.411c0,0.227,0.184,0.411,0.411,0.411
							h0.393v21.878c0,1.215,0.985,2.2,2.2,2.2c1.215,0,2.2-0.985,2.2-2.2V249.56h0.393c0.227,0,0.411-0.184,0.411-0.411
							C539.2,248.923,539.016,248.739,538.789,248.739z"/>
						<path style="fill:#C1CAFF;" d="M546.472,248.739h-5.185c-0.227,0-0.411,0.184-0.411,0.411c0,0.227,0.184,0.411,0.411,0.411
							h0.393v21.878c0,1.215,0.985,2.2,2.2,2.2c1.215,0,2.2-0.985,2.2-2.2V249.56h0.393c0.227,0,0.411-0.184,0.411-0.411
							C546.883,248.923,546.699,248.739,546.472,248.739z"/>
					</g>
					<path style="fill:#ABAFF4;" d="M549.358,273.638v-19.591v-0.91h-0.91h-24.505h-0.91v0.91v19.591h-2.374v2.552h31.072v-2.552
						H549.358z M523.944,273.638v-19.591h24.505v19.591H523.944z"/>
				</g>
				<g>
					<path style="fill:#C1CAFF;" d="M525.592,210.151c-0.977-0.422-1.563-1.44-1.563-2.505l0,0h-6.737l0,0
						c0,1.065-0.585,2.083-1.563,2.505c-0.13,0.056-0.265,0.104-0.403,0.142l0,0c-1.339,0.369-2.267,1.588-2.267,2.977v18.722
						c0,0.761,0.617,1.378,1.378,1.378h12.448c0.761,0,1.378-0.617,1.378-1.378V213.27c0-1.389-0.928-2.608-2.267-2.977l0,0
						C525.857,210.255,525.722,210.208,525.592,210.151z"/>
					<rect x="516.889" y="204.28" style="fill:#ABAFF4;" width="7.543" height="3.366"/>
					<rect x="516.205" y="215.09" style="fill:#ABAFF4;" width="8.911" height="12.378"/>
				</g>
				<g>
					<path style="fill:#C1CAFF;" d="M620.411,252.972c-0.977-0.422-1.563-1.44-1.563-2.505l0,0H602.11l0,0
						c0,1.065-0.585,2.083-1.563,2.505c-0.13,0.056-0.265,0.104-0.403,0.142l0,0c-1.339,0.369-2.267,1.588-2.267,2.977v18.722
						c0,0.761,0.617,1.378,1.378,1.378h22.448c0.761,0,1.378-0.617,1.378-1.378v-18.722c0-1.389-0.928-2.608-2.267-2.977l0,0
						C620.676,253.075,620.541,253.028,620.411,252.972z"/>
					<rect x="601.707" y="249.101" style="fill:#ABAFF4;" width="17.544" height="1.366"/>
					<rect x="601.024" y="257.911" style="fill:#ABAFF4;" width="18.911" height="12.378"/>
				</g>
				<g>
					<path style="fill:#C1CAFF;" d="M641.683,248.971c-0.977-0.422-1.563-1.44-1.563-2.505l0,0h-6.737l0,0
						c0,1.065-0.585,2.083-1.563,2.505c-0.13,0.056-0.265,0.104-0.403,0.142l0,0c-1.339,0.369-2.267,1.588-2.267,2.977v22.722
						c0,0.761,0.617,1.378,1.378,1.378h12.448c0.761,0,1.378-0.617,1.378-1.378V252.09c0-1.389-0.928-2.608-2.267-2.977l0,0
						C641.948,249.075,641.813,249.028,641.683,248.971z"/>
					<rect x="632.98" y="245.101" style="fill:#ABAFF4;" width="7.543" height="1.366"/>
					<rect x="629.15" y="255.139" style="fill:#ABAFF4;" width="8.911" height="16.378"/>
				</g>
				<path style="fill:#FFFFFF;" d="M582.375,232.973L582.375,232.973c-0.585,0-1.059-0.474-1.059-1.059v-35.348
					c0-0.585,0.474-1.059,1.059-1.059l0,0c0.585,0,1.059,0.474,1.059,1.059v35.348C583.434,232.499,582.96,232.973,582.375,232.973z
					"/>
				<path style="fill:#FFFFFF;" d="M589.389,232.973L589.389,232.973c-0.585,0-1.059-0.474-1.059-1.059v-35.348
					c0-0.585,0.474-1.059,1.059-1.059l0,0c0.585,0,1.059,0.474,1.059,1.059v35.348C590.447,232.499,589.973,232.973,589.389,232.973
					z"/>
			</g>
			<g>
				<g>
					<path style="fill:#AFB7F3;" d="M254.868,263.817h205.144c4.469,0,8.091-3.622,8.091-8.091V140.38
						c0-4.468-3.622-8.091-8.091-8.091H254.868c-4.468,0-8.091,3.622-8.091,8.091v115.346
						C246.777,260.195,250.4,263.817,254.868,263.817z"/>
					
						<rect x="299.882" y="95.596" transform="matrix(-1.836970e-16 1 -1 -1.836970e-16 555.4934 -159.3873)" style="fill:#CFDAFE;" width="115.116" height="204.915"/>
					<path style="fill:#FFFFFF;" d="M447.301,253.697h6.598c1.057,0,1.914,0.857,1.914,1.914l0,0h-10.425l0,0
						C445.387,254.554,446.244,253.697,447.301,253.697z"/>
				</g>
				<g>
					<g>
						<path style="fill:#FFFFFF;" d="M429.835,186.808c-7.701,0-13.966-6.266-13.966-13.967c0-7.701,6.265-13.966,13.966-13.966
							s13.966,6.265,13.966,13.966C443.801,180.542,437.536,186.808,429.835,186.808z M429.835,159.875
							c-7.149,0-12.966,5.816-12.966,12.966c0,7.15,5.816,12.967,12.966,12.967c7.149,0,12.966-5.816,12.966-12.967
							C442.801,165.692,436.984,159.875,429.835,159.875z"/>
						<path style="fill:#FFFFFF;" d="M418.102,187.231c-3.988,0-7.232-3.244-7.232-7.232c0-3.988,3.244-7.233,7.232-7.233
							c3.988,0,7.233,3.245,7.233,7.233C425.335,183.986,422.09,187.231,418.102,187.231z M418.102,173.765
							c-3.436,0-6.232,2.796-6.232,6.233c0,3.436,2.796,6.232,6.232,6.232c3.438,0,6.233-2.796,6.233-6.232
							C424.335,176.561,421.539,173.765,418.102,173.765z"/>
					</g>
					<g>
						<g>
							<path style="fill:#FFFFFF;" d="M412.208,215.598h-4.571c-0.179,0-0.344-0.096-0.433-0.25l-2.286-3.959
								c-0.09-0.154-0.09-0.346,0-0.5l2.286-3.96c0.089-0.154,0.254-0.25,0.433-0.25h4.571c0.179,0,0.344,0.096,0.433,0.25
								l2.286,3.96c0.09,0.154,0.09,0.346,0,0.5l-2.286,3.959C412.552,215.502,412.387,215.598,412.208,215.598z M407.926,214.598
								h3.993l1.998-3.459l-1.998-3.46h-3.993l-1.998,3.46L407.926,214.598z"/>
							<g>
								<path style="fill:#FFFFFF;" d="M445.905,208.525h-26.35c-0.276,0-0.5-0.224-0.5-0.5c0-0.276,0.224-0.5,0.5-0.5h26.35
									c0.276,0,0.5,0.224,0.5,0.5C446.405,208.301,446.182,208.525,445.905,208.525z"/>
								<path style="fill:#FFFFFF;" d="M445.905,211.639h-26.35c-0.276,0-0.5-0.224-0.5-0.5s0.224-0.5,0.5-0.5h26.35
									c0.276,0,0.5,0.224,0.5,0.5S446.182,211.639,445.905,211.639z"/>
								<path style="fill:#FFFFFF;" d="M445.905,214.752h-26.35c-0.276,0-0.5-0.224-0.5-0.5c0-0.276,0.224-0.5,0.5-0.5h26.35
									c0.276,0,0.5,0.224,0.5,0.5C446.405,214.529,446.182,214.752,445.905,214.752z"/>
							</g>
						</g>
						<g>
							<path style="fill:#FFFFFF;" d="M412.208,229.067h-4.571c-0.179,0-0.344-0.096-0.433-0.25l-2.286-3.959
								c-0.09-0.154-0.09-0.346,0-0.5l2.286-3.96c0.089-0.154,0.254-0.25,0.433-0.25h4.571c0.179,0,0.344,0.096,0.433,0.25
								l2.286,3.96c0.09,0.154,0.09,0.346,0,0.5l-2.286,3.959C412.552,228.971,412.387,229.067,412.208,229.067z M407.926,228.067
								h3.993l1.998-3.459l-1.998-3.46h-3.993l-1.998,3.46L407.926,228.067z"/>
							<g>
								<path style="fill:#FFFFFF;" d="M445.905,221.993h-26.35c-0.276,0-0.5-0.224-0.5-0.5c0-0.276,0.224-0.5,0.5-0.5h26.35
									c0.276,0,0.5,0.224,0.5,0.5C446.405,221.77,446.182,221.993,445.905,221.993z"/>
								<path style="fill:#FFFFFF;" d="M445.905,225.108h-26.35c-0.276,0-0.5-0.224-0.5-0.5c0-0.276,0.224-0.5,0.5-0.5h26.35
									c0.276,0,0.5,0.224,0.5,0.5C446.405,224.884,446.182,225.108,445.905,225.108z"/>
								<path style="fill:#FFFFFF;" d="M445.905,228.221h-26.35c-0.276,0-0.5-0.224-0.5-0.5c0-0.276,0.224-0.5,0.5-0.5h26.35
									c0.276,0,0.5,0.224,0.5,0.5C446.405,227.997,446.182,228.221,445.905,228.221z"/>
							</g>
						</g>
						<g>
							<path style="fill:#FFFFFF;" d="M412.208,242.535h-4.571c-0.179,0-0.344-0.096-0.433-0.25l-2.286-3.959
								c-0.09-0.154-0.09-0.346,0-0.5l2.286-3.96c0.089-0.154,0.254-0.25,0.433-0.25h4.571c0.179,0,0.344,0.096,0.433,0.25
								l2.286,3.96c0.09,0.154,0.09,0.346,0,0.5l-2.286,3.959C412.552,242.44,412.387,242.535,412.208,242.535z M407.926,241.535
								h3.993l1.998-3.459l-1.998-3.46h-3.993l-1.998,3.46L407.926,241.535z"/>
							<g>
								<path style="fill:#FFFFFF;" d="M445.905,235.462h-26.35c-0.276,0-0.5-0.224-0.5-0.5c0-0.276,0.224-0.5,0.5-0.5h26.35
									c0.276,0,0.5,0.224,0.5,0.5C446.405,235.238,446.182,235.462,445.905,235.462z"/>
								<path style="fill:#FFFFFF;" d="M445.905,238.576h-26.35c-0.276,0-0.5-0.224-0.5-0.5s0.224-0.5,0.5-0.5h26.35
									c0.276,0,0.5,0.224,0.5,0.5S446.182,238.576,445.905,238.576z"/>
								<path style="fill:#FFFFFF;" d="M445.905,241.69h-26.35c-0.276,0-0.5-0.224-0.5-0.5c0-0.276,0.224-0.5,0.5-0.5h26.35
									c0.276,0,0.5,0.224,0.5,0.5C446.405,241.466,446.182,241.69,445.905,241.69z"/>
							</g>
						</g>
					</g>
					<g>
						<g>
							<path style="fill:#FFFFFF;" d="M333.16,188.126c-0.097,0-0.196-0.028-0.282-0.088l-5.476-3.749
								c-0.228-0.155-0.286-0.467-0.13-0.694c0.155-0.227,0.467-0.287,0.695-0.13l5.476,3.749c0.228,0.155,0.286,0.467,0.13,0.694
								C333.476,188.05,333.319,188.126,333.16,188.126z"/>
							<path style="fill:#FFFFFF;" d="M333.939,195.457c-0.097,0-0.196-0.028-0.282-0.088l-13.372-9.154
								c-0.228-0.155-0.286-0.467-0.13-0.694c0.156-0.228,0.467-0.288,0.695-0.13l13.372,9.154c0.228,0.155,0.286,0.467,0.13,0.694
								C334.256,195.381,334.099,195.457,333.939,195.457z"/>
							<path style="fill:#FFFFFF;" d="M333.008,201.616c-0.097,0-0.196-0.028-0.282-0.088l-17.845-12.217
								c-0.228-0.155-0.286-0.467-0.13-0.694c0.155-0.228,0.468-0.287,0.695-0.13l17.845,12.217c0.228,0.155,0.286,0.467,0.13,0.694
								C333.324,201.54,333.167,201.616,333.008,201.616z"/>
							<path style="fill:#FFFFFF;" d="M329.839,206.244c-0.097,0-0.196-0.028-0.282-0.088l-17.845-12.217
								c-0.228-0.155-0.286-0.467-0.13-0.694c0.155-0.227,0.468-0.288,0.695-0.13l17.845,12.217c0.228,0.155,0.286,0.467,0.13,0.694
								C330.156,206.168,329.999,206.244,329.839,206.244z"/>
							<path style="fill:#FFFFFF;" d="M324.434,209.341c-0.097,0-0.196-0.028-0.282-0.088l-13.372-9.153
								c-0.228-0.155-0.286-0.467-0.13-0.694c0.155-0.228,0.468-0.285,0.695-0.131l13.372,9.153c0.228,0.156,0.286,0.468,0.13,0.695
								C324.751,209.265,324.594,209.341,324.434,209.341z"/>
							<path style="fill:#FFFFFF;" d="M317.318,211.267c-0.097,0-0.196-0.028-0.282-0.088l-5.476-3.749
								c-0.228-0.155-0.286-0.467-0.13-0.694c0.156-0.228,0.468-0.287,0.695-0.13l5.476,3.749c0.228,0.155,0.286,0.467,0.13,0.694
								C317.635,211.191,317.478,211.267,317.318,211.267z"/>
						</g>
						<g>
							<path style="fill:#FFFFFF;" d="M355.458,168.822c-0.097,0-0.196-0.028-0.282-0.088l-17.845-12.217
								c-0.228-0.155-0.286-0.467-0.13-0.694c0.156-0.228,0.467-0.287,0.695-0.13l17.845,12.217c0.228,0.155,0.286,0.467,0.13,0.694
								C355.774,168.745,355.618,168.822,355.458,168.822z"/>
							<path style="fill:#FFFFFF;" d="M350.053,171.918c-0.097,0-0.196-0.028-0.282-0.088l-13.372-9.154
								c-0.228-0.155-0.286-0.467-0.13-0.694c0.156-0.228,0.468-0.287,0.695-0.13l13.372,9.154c0.228,0.155,0.286,0.467,0.13,0.694
								C350.37,171.842,350.213,171.918,350.053,171.918z"/>
							<path style="fill:#FFFFFF;" d="M342.937,173.843c-0.097,0-0.196-0.028-0.282-0.087l-5.476-3.748
								c-0.228-0.156-0.286-0.468-0.13-0.695c0.155-0.227,0.468-0.286,0.695-0.131l5.476,3.748c0.228,0.156,0.286,0.468,0.13,0.695
								C343.253,173.767,343.097,173.843,342.937,173.843z"/>
						</g>
						<g>
							<path style="fill:#FFFFFF;" d="M306.56,240.25c-0.097,0-0.196-0.028-0.282-0.088l-17.845-12.216
								c-0.228-0.155-0.286-0.467-0.13-0.694c0.156-0.228,0.468-0.288,0.695-0.13l17.845,12.216c0.228,0.155,0.286,0.467,0.13,0.694
								C306.876,240.174,306.72,240.25,306.56,240.25z"/>
							<path style="fill:#FFFFFF;" d="M307.492,234.091c-0.097,0-0.196-0.028-0.282-0.088l-13.372-9.154
								c-0.228-0.155-0.286-0.467-0.13-0.694c0.155-0.227,0.467-0.288,0.695-0.13l13.372,9.154c0.228,0.155,0.286,0.467,0.13,0.694
								C307.808,234.015,307.651,234.091,307.492,234.091z"/>
							<path style="fill:#FFFFFF;" d="M306.712,226.76c-0.097,0-0.196-0.028-0.282-0.088l-5.476-3.748
								c-0.228-0.155-0.286-0.467-0.13-0.694c0.156-0.229,0.467-0.287,0.695-0.13l5.476,3.748c0.228,0.155,0.286,0.467,0.13,0.694
								C307.028,226.684,306.871,226.76,306.712,226.76z"/>
						</g>
						<g>
							<path style="fill:#FFFFFF;" d="M310.235,244.044c-0.097,0-0.196-0.028-0.282-0.088c-0.228-0.155-0.286-0.467-0.13-0.694
								c3.782-5.524,3.478-13.938-0.878-24.33c-5.173-12.338-5.239-22.757-0.191-30.131c5.047-7.374,14.784-11.094,28.159-10.725
								c11.273,0.291,19.219-2.459,23-7.984c0.156-0.227,0.467-0.286,0.695-0.131c0.228,0.156,0.286,0.468,0.13,0.695
								c-3.983,5.819-12.236,8.717-23.852,8.42c-13.021-0.355-22.46,3.211-27.307,10.289c-4.847,7.08-4.747,17.17,0.288,29.18
								c4.495,10.722,4.765,19.464,0.782,25.281C310.551,243.968,310.395,244.044,310.235,244.044z"/>
							<path style="fill:#FFFFFF;" d="M283.849,225.981c-0.097,0-0.196-0.028-0.282-0.088c-0.228-0.155-0.286-0.467-0.13-0.694
								c3.983-5.818,12.234-8.717,23.851-8.418c13.011,0.345,22.461-3.21,27.308-10.29c4.846-7.08,4.746-17.17-0.288-29.18
								c-4.495-10.722-4.765-19.464-0.781-25.281c0.156-0.229,0.467-0.287,0.695-0.13c0.228,0.155,0.286,0.467,0.13,0.694
								c-3.783,5.523-3.479,13.937,0.878,24.33c5.172,12.339,5.238,22.758,0.191,30.131c-5.047,7.374-14.778,11.077-28.159,10.726
								c-11.257-0.296-19.217,2.458-22.999,7.982C284.165,225.904,284.008,225.981,283.849,225.981z"/>
						</g>
					</g>
					<g>
						<path style="fill:#FFFFFF;" d="M371.27,228.845h-4.572c-0.179,0-0.344-0.096-0.433-0.25l-2.286-3.959
							c-0.089-0.154-0.089-0.346,0-0.5l2.286-3.959c0.089-0.154,0.254-0.25,0.433-0.25h4.572c0.179,0,0.344,0.096,0.433,0.25
							l2.285,3.959c0.09,0.154,0.09,0.346,0,0.5l-2.285,3.959C371.614,228.749,371.449,228.845,371.27,228.845z M366.987,227.845
							h3.995l1.997-3.459l-1.997-3.459h-3.995l-1.997,3.459L366.987,227.845z"/>
						<path style="fill:#FFFFFF;" d="M364.412,224.886h-4.572c-0.179,0-0.344-0.096-0.433-0.25l-2.286-3.959
							c-0.089-0.154-0.089-0.346,0-0.5l2.286-3.96c0.089-0.154,0.254-0.25,0.433-0.25h4.572c0.179,0,0.344,0.096,0.433,0.25
							l2.286,3.96c0.089,0.154,0.089,0.346,0,0.5l-2.286,3.959C364.756,224.79,364.591,224.886,364.412,224.886z M360.129,223.886
							h3.995l1.997-3.459l-1.997-3.46h-3.995l-1.998,3.46L360.129,223.886z"/>
						<path style="fill:#FFFFFF;" d="M364.412,216.967h-4.572c-0.179,0-0.344-0.096-0.433-0.25l-2.286-3.959
							c-0.089-0.154-0.089-0.346,0-0.5l2.286-3.959c0.089-0.154,0.254-0.25,0.433-0.25h4.572c0.179,0,0.344,0.096,0.433,0.25
							l2.286,3.959c0.089,0.154,0.089,0.346,0,0.5l-2.286,3.959C364.756,216.871,364.591,216.967,364.412,216.967z M360.129,215.967
							h3.995l1.997-3.459l-1.997-3.459h-3.995l-1.998,3.459L360.129,215.967z"/>
						<path style="fill:#FFFFFF;" d="M357.555,228.845h-4.571c-0.179,0-0.344-0.096-0.433-0.25l-2.286-3.959
							c-0.089-0.154-0.089-0.346,0-0.5l2.286-3.959c0.089-0.154,0.254-0.25,0.433-0.25h4.571c0.179,0,0.344,0.096,0.433,0.25
							l2.286,3.959c0.089,0.154,0.089,0.346,0,0.5l-2.286,3.959C357.898,228.749,357.733,228.845,357.555,228.845z M353.272,227.845
							h3.994l1.998-3.459l-1.998-3.459h-3.994l-1.998,3.459L353.272,227.845z"/>
						<path style="fill:#FFFFFF;" d="M378.128,240.723h-4.572c-0.179,0-0.344-0.096-0.433-0.25l-2.285-3.959
							c-0.09-0.154-0.09-0.346,0-0.5l2.285-3.959c0.089-0.154,0.254-0.25,0.433-0.25h4.572c0.179,0,0.344,0.096,0.433,0.25
							l2.286,3.959c0.09,0.154,0.09,0.346,0,0.5l-2.286,3.959C378.472,240.627,378.307,240.723,378.128,240.723z M373.845,239.723
							h3.994l1.998-3.459l-1.998-3.459h-3.994l-1.997,3.459L373.845,239.723z"/>
						<path style="fill:#FFFFFF;" d="M364.412,240.723h-4.572c-0.179,0-0.344-0.096-0.433-0.25l-2.286-3.959
							c-0.089-0.154-0.089-0.346,0-0.5l2.286-3.959c0.089-0.154,0.254-0.25,0.433-0.25h4.572c0.179,0,0.344,0.096,0.433,0.25
							l2.286,3.959c0.089,0.154,0.089,0.346,0,0.5l-2.286,3.959C364.756,240.627,364.591,240.723,364.412,240.723z M360.129,239.723
							h3.995l1.997-3.459l-1.997-3.459h-3.995l-1.998,3.459L360.129,239.723z"/>
						<path style="fill:#FFFFFF;" d="M371.27,236.764h-4.572c-0.179,0-0.344-0.096-0.433-0.25l-2.286-3.959
							c-0.089-0.154-0.089-0.346,0-0.5l2.286-3.96c0.089-0.154,0.254-0.25,0.433-0.25h4.572c0.179,0,0.344,0.096,0.433,0.25
							l2.285,3.96c0.09,0.154,0.09,0.346,0,0.5l-2.285,3.959C371.614,236.668,371.449,236.764,371.27,236.764z M366.987,235.764
							h3.995l1.997-3.459l-1.997-3.46h-3.995l-1.997,3.46L366.987,235.764z"/>
					</g>
					<g>
						<path style="fill:#FFFFFF;" d="M354.089,195.401h-1c-0.276,0-0.5-0.224-0.5-0.5s0.224-0.5,0.5-0.5h1
							c0.276,0,0.5,0.224,0.5,0.5S354.365,195.401,354.089,195.401z"/>
						<path style="fill:#FFFFFF;" d="M424.901,195.401h-1.967c-0.276,0-0.5-0.224-0.5-0.5s0.224-0.5,0.5-0.5h1.967
							c0.276,0,0.5,0.224,0.5,0.5S425.178,195.401,424.901,195.401z M419,195.401h-1.967c-0.276,0-0.5-0.224-0.5-0.5
							s0.224-0.5,0.5-0.5H419c0.276,0,0.5,0.224,0.5,0.5S419.276,195.401,419,195.401z M413.099,195.401h-1.968
							c-0.276,0-0.5-0.224-0.5-0.5s0.224-0.5,0.5-0.5h1.968c0.276,0,0.5,0.224,0.5,0.5S413.376,195.401,413.099,195.401z
							 M407.198,195.401h-1.967c-0.276,0-0.5-0.224-0.5-0.5s0.224-0.5,0.5-0.5h1.967c0.276,0,0.5,0.224,0.5,0.5
							S407.474,195.401,407.198,195.401z M401.297,195.401h-1.967c-0.276,0-0.5-0.224-0.5-0.5s0.224-0.5,0.5-0.5h1.967
							c0.276,0,0.5,0.224,0.5,0.5S401.573,195.401,401.297,195.401z M395.396,195.401h-1.968c-0.276,0-0.5-0.224-0.5-0.5
							s0.224-0.5,0.5-0.5h1.968c0.276,0,0.5,0.224,0.5,0.5S395.673,195.401,395.396,195.401z M389.495,195.401h-1.967
							c-0.276,0-0.5-0.224-0.5-0.5s0.224-0.5,0.5-0.5h1.967c0.276,0,0.5,0.224,0.5,0.5S389.771,195.401,389.495,195.401z
							 M383.594,195.401h-1.967c-0.276,0-0.5-0.224-0.5-0.5s0.224-0.5,0.5-0.5h1.967c0.276,0,0.5,0.224,0.5,0.5
							S383.87,195.401,383.594,195.401z M377.693,195.401h-1.968c-0.276,0-0.5-0.224-0.5-0.5s0.224-0.5,0.5-0.5h1.968
							c0.276,0,0.5,0.224,0.5,0.5S377.97,195.401,377.693,195.401z M371.792,195.401h-1.967c-0.276,0-0.5-0.224-0.5-0.5
							s0.224-0.5,0.5-0.5h1.967c0.276,0,0.5,0.224,0.5,0.5S372.068,195.401,371.792,195.401z M365.891,195.401h-1.967
							c-0.276,0-0.5-0.224-0.5-0.5s0.224-0.5,0.5-0.5h1.967c0.276,0,0.5,0.224,0.5,0.5S366.167,195.401,365.891,195.401z
							 M359.99,195.401h-1.967c-0.276,0-0.5-0.224-0.5-0.5s0.224-0.5,0.5-0.5h1.967c0.276,0,0.5,0.224,0.5,0.5
							S360.266,195.401,359.99,195.401z"/>
						<path style="fill:#FFFFFF;" d="M429.835,195.401h-1c-0.276,0-0.5-0.224-0.5-0.5s0.224-0.5,0.5-0.5h0.5v-0.5
							c0-0.276,0.224-0.5,0.5-0.5s0.5,0.224,0.5,0.5v1C430.335,195.177,430.111,195.401,429.835,195.401z"/>
						<path style="fill:#FFFFFF;" d="M429.835,190.886c-0.276,0-0.5-0.224-0.5-0.5v-1.757c0-0.276,0.224-0.5,0.5-0.5
							s0.5,0.224,0.5,0.5v1.757C430.335,190.662,430.111,190.886,429.835,190.886z M429.835,185.615c-0.276,0-0.5-0.224-0.5-0.5
							v-1.758c0-0.276,0.224-0.5,0.5-0.5s0.5,0.224,0.5,0.5v1.758C430.335,185.391,430.111,185.615,429.835,185.615z"/>
						<path style="fill:#FFFFFF;" d="M429.835,180.342c-0.276,0-0.5-0.224-0.5-0.5v-1c0-0.276,0.224-0.5,0.5-0.5s0.5,0.224,0.5,0.5
							v1C430.335,180.118,430.111,180.342,429.835,180.342z"/>
					</g>
					<g>
						<g>
							<path style="fill:#FFFFFF;" d="M403.248,159.07h-26.349c-0.276,0-0.5-0.224-0.5-0.5c0-0.276,0.224-0.5,0.5-0.5h26.349
								c0.276,0,0.5,0.224,0.5,0.5C403.748,158.847,403.524,159.07,403.248,159.07z"/>
							<path style="fill:#FFFFFF;" d="M403.248,162.185h-26.349c-0.276,0-0.5-0.224-0.5-0.5s0.224-0.5,0.5-0.5h26.349
								c0.276,0,0.5,0.224,0.5,0.5S403.524,162.185,403.248,162.185z"/>
							<path style="fill:#FFFFFF;" d="M403.248,155.957h-26.349c-0.276,0-0.5-0.224-0.5-0.5c0-0.276,0.224-0.5,0.5-0.5h26.349
								c0.276,0,0.5,0.224,0.5,0.5C403.748,155.734,403.524,155.957,403.248,155.957z"/>
							<path style="fill:#FFFFFF;" d="M390.247,165.299h-13.348c-0.276,0-0.5-0.224-0.5-0.5c0-0.276,0.224-0.5,0.5-0.5h13.348
								c0.276,0,0.5,0.224,0.5,0.5C390.747,165.075,390.523,165.299,390.247,165.299z"/>
						</g>
					</g>
					<g>
						<g>
							<path style="fill:#FFFFFF;" d="M303.175,178.352h-36.238c-0.276,0-0.5-0.224-0.5-0.5v-22.395c0-0.276,0.224-0.5,0.5-0.5
								c0.276,0,0.5,0.224,0.5,0.5v21.895h35.738c0.276,0,0.5,0.224,0.5,0.5C303.675,178.128,303.451,178.352,303.175,178.352z"/>
							<path style="fill:#FFFFFF;" d="M270.684,176.282c-0.276,0-0.5-0.224-0.5-0.5v-12.38c0-0.276,0.224-0.5,0.5-0.5
								c0.276,0,0.5,0.224,0.5,0.5v12.38C271.184,176.059,270.96,176.282,270.684,176.282z"/>
							<path style="fill:#FFFFFF;" d="M275.081,176.282c-0.276,0-0.5-0.224-0.5-0.5v-15.38c0-0.276,0.224-0.5,0.5-0.5
								c0.276,0,0.5,0.224,0.5,0.5v15.38C275.581,176.059,275.358,176.282,275.081,176.282z"/>
							<path style="fill:#FFFFFF;" d="M279.48,176.282c-0.276,0-0.5-0.224-0.5-0.5v-10.38c0-0.276,0.224-0.5,0.5-0.5
								s0.5,0.224,0.5,0.5v10.38C279.98,176.059,279.756,176.282,279.48,176.282z"/>
							<path style="fill:#FFFFFF;" d="M283.878,176.282c-0.276,0-0.5-0.224-0.5-0.5v-6.38c0-0.276,0.224-0.5,0.5-0.5
								c0.276,0,0.5,0.224,0.5,0.5v6.38C284.378,176.059,284.154,176.282,283.878,176.282z"/>
							<path style="fill:#FFFFFF;" d="M288.276,176.282c-0.276,0-0.5-0.224-0.5-0.5v-1.379c0-0.276,0.224-0.5,0.5-0.5
								c0.276,0,0.5,0.224,0.5,0.5v1.379C288.776,176.059,288.553,176.282,288.276,176.282z"/>
							<path style="fill:#FFFFFF;" d="M292.674,176.282c-0.276,0-0.5-0.224-0.5-0.5v-4.38c0-0.276,0.224-0.5,0.5-0.5
								c0.276,0,0.5,0.224,0.5,0.5v4.38C293.174,176.059,292.951,176.282,292.674,176.282z"/>
							<path style="fill:#FFFFFF;" d="M297.073,176.282c-0.276,0-0.5-0.224-0.5-0.5v-10.38c0-0.276,0.224-0.5,0.5-0.5
								c0.276,0,0.5,0.224,0.5,0.5v10.38C297.573,176.059,297.349,176.282,297.073,176.282z"/>
							<path style="fill:#FFFFFF;" d="M301.471,176.282c-0.276,0-0.5-0.224-0.5-0.5v-16.38c0-0.276,0.224-0.5,0.5-0.5
								c0.276,0,0.5,0.224,0.5,0.5v16.38C301.971,176.059,301.747,176.282,301.471,176.282z"/>
						</g>
						<g>
							<g>
								<path style="fill:#FFFFFF;" d="M293.286,192.471h-26.349c-0.276,0-0.5-0.224-0.5-0.5c0-0.276,0.224-0.5,0.5-0.5h26.349
									c0.276,0,0.5,0.224,0.5,0.5C293.786,192.247,293.562,192.471,293.286,192.471z"/>
								<path style="fill:#FFFFFF;" d="M293.286,195.585h-26.349c-0.276,0-0.5-0.224-0.5-0.5c0-0.276,0.224-0.5,0.5-0.5h26.349
									c0.276,0,0.5,0.224,0.5,0.5C293.786,195.361,293.562,195.585,293.286,195.585z"/>
								<path style="fill:#FFFFFF;" d="M293.286,189.357h-26.349c-0.276,0-0.5-0.224-0.5-0.5c0-0.276,0.224-0.5,0.5-0.5h26.349
									c0.276,0,0.5,0.224,0.5,0.5C293.786,189.133,293.562,189.357,293.286,189.357z"/>
								<path style="fill:#FFFFFF;" d="M280.285,198.699h-13.348c-0.276,0-0.5-0.224-0.5-0.5c0-0.276,0.224-0.5,0.5-0.5h13.348
									c0.276,0,0.5,0.224,0.5,0.5C280.785,198.475,280.561,198.699,280.285,198.699z"/>
							</g>
						</g>
					</g>
				</g>
			</g>
			<g>
				<g>
					<g>
						<path style="fill:#C1CAFF;" d="M91.695,204.772h-4.885c-0.214,0-0.387,0.173-0.387,0.387c0,0.214,0.173,0.387,0.387,0.387
							h0.37v20.611c0,1.145,0.928,2.072,2.072,2.072l0,0c1.145,0,2.072-0.928,2.072-2.072v-20.611h0.37
							c0.214,0,0.387-0.173,0.387-0.387C92.082,204.945,91.909,204.772,91.695,204.772z"/>
						<path style="fill:#C1CAFF;" d="M98.934,204.772h-4.885c-0.214,0-0.387,0.173-0.387,0.387c0,0.214,0.173,0.387,0.387,0.387
							h0.37v20.611c0,1.145,0.928,2.072,2.072,2.072c1.145,0,2.072-0.928,2.072-2.072v-20.611h0.37c0.214,0,0.387-0.173,0.387-0.387
							C99.32,204.945,99.147,204.772,98.934,204.772z"/>
						<path style="fill:#C1CAFF;" d="M106.172,204.772h-4.885c-0.214,0-0.387,0.173-0.387,0.387c0,0.214,0.173,0.387,0.387,0.387
							h0.37v20.611c0,1.145,0.928,2.072,2.072,2.072s2.072-0.928,2.072-2.072v-20.611h0.37c0.214,0,0.387-0.173,0.387-0.387
							C106.559,204.945,106.386,204.772,106.172,204.772z"/>
					</g>
					<path style="fill:#ABAFF4;" d="M108.891,228.229v-18.456v-0.857h-0.857H84.949h-0.857v0.857v18.456h-2.236v2.404h29.272v-2.404
						H108.891z M84.949,228.229v-18.456h23.085v18.456H84.949z"/>
				</g>
				<g>
					<path style="fill:#C1CAFF;" d="M156.783,155.265c-0.921-0.398-1.472-1.357-1.472-2.36l0,0h-6.347l0,0
						c0,1.003-0.551,1.962-1.472,2.36c-0.123,0.053-0.249,0.098-0.38,0.134l0,0c-1.262,0.348-2.136,1.496-2.136,2.805v17.637
						c0,0.717,0.581,1.298,1.298,1.298h11.727c0.717,0,1.298-0.581,1.298-1.298v-17.637c0-1.309-0.874-2.457-2.136-2.805l0,0
						C157.033,155.363,156.906,155.318,156.783,155.265z"/>
					<rect x="148.584" y="149.734" style="fill:#ABAFF4;" width="7.106" height="3.171"/>
					<rect x="147.94" y="159.918" style="fill:#ABAFF4;" width="8.394" height="11.661"/>
				</g>
				<g>
					<rect x="76.008" y="133.715" style="fill:#998CFF;" width="12.444" height="43.376"/>
					<path style="fill:#6E64E2;" d="M85.196,169.63c0,1.638-1.328,2.966-2.966,2.966c-1.638,0-2.967-1.328-2.967-2.966
						s1.328-2.967,2.967-2.967C83.868,166.664,85.196,167.992,85.196,169.63z"/>
					<rect x="77.528" y="141.389" style="fill:#CFDAFE;" width="9.403" height="20.461"/>
					<g>
						<rect x="78.511" y="145.226" style="fill:#998CFF;" width="7.571" height="0.512"/>
						<rect x="78.511" y="147.681" style="fill:#998CFF;" width="7.571" height="0.512"/>
						<rect x="78.511" y="150.137" style="fill:#998CFF;" width="7.571" height="0.512"/>
						<rect x="78.511" y="152.592" style="fill:#998CFF;" width="7.571" height="0.512"/>
						<rect x="78.511" y="155.047" style="fill:#998CFF;" width="7.571" height="0.512"/>
						<rect x="78.511" y="157.503" style="fill:#998CFF;" width="7.571" height="0.512"/>
					</g>
				</g>
				<g>
					<rect x="89.74" y="133.715" style="fill:#AFB7F3;" width="12.444" height="43.376"/>
					<path style="fill:#998CFF;" d="M98.928,169.63c0,1.638-1.328,2.966-2.966,2.966c-1.638,0-2.967-1.328-2.967-2.966
						s1.328-2.967,2.967-2.967C97.6,166.664,98.928,167.992,98.928,169.63z"/>
					<rect x="91.26" y="141.389" style="fill:#CFDAFE;" width="9.403" height="20.461"/>
					<g>
						<rect x="92.243" y="145.226" style="fill:#998CFF;" width="7.571" height="0.512"/>
						<rect x="92.243" y="147.681" style="fill:#998CFF;" width="7.571" height="0.512"/>
						<rect x="92.243" y="150.137" style="fill:#998CFF;" width="7.571" height="0.512"/>
						<rect x="92.243" y="152.592" style="fill:#998CFF;" width="7.571" height="0.512"/>
						<rect x="92.243" y="155.047" style="fill:#998CFF;" width="7.571" height="0.512"/>
						<rect x="92.243" y="157.503" style="fill:#998CFF;" width="7.571" height="0.512"/>
					</g>
				</g>
				<g>
					
						<rect x="105.547" y="133.002" transform="matrix(0.9873 -0.1587 0.1587 0.9873 -23.1355 19.7009)" style="fill:#AFB7F3;" width="12.444" height="43.376"/>
					<path style="fill:#998CFF;" d="M116.956,168.266c0.26,1.618-0.84,3.14-2.458,3.4c-1.618,0.26-3.14-0.84-3.4-2.458
						c-0.26-1.618,0.84-3.14,2.458-3.4C115.174,165.548,116.696,166.649,116.956,168.266z"/>
					
						<rect x="106.467" y="140.725" transform="matrix(0.9873 -0.1587 0.1587 0.9873 -22.5498 19.5576)" style="fill:#CFDAFE;" width="9.403" height="20.461"/>
					<g>
						
							<rect x="106.475" y="144.628" transform="matrix(0.9873 -0.1587 0.1587 0.9873 -21.598 19.3368)" style="fill:#998CFF;" width="7.571" height="0.512"/>
						
							<rect x="106.864" y="147.053" transform="matrix(0.9873 -0.1587 0.1587 0.9873 -21.9776 19.4291)" style="fill:#998CFF;" width="7.571" height="0.511"/>
						
							<rect x="107.254" y="149.477" transform="matrix(0.9873 -0.1587 0.1587 0.9873 -22.3574 19.5217)" style="fill:#998CFF;" width="7.571" height="0.512"/>
						
							<rect x="107.644" y="151.901" transform="matrix(0.9873 -0.1587 0.1587 0.9873 -22.7373 19.6143)" style="fill:#998CFF;" width="7.571" height="0.511"/>
						
							<rect x="108.033" y="154.325" transform="matrix(0.9873 -0.1587 0.1587 0.9873 -23.1171 19.7068)" style="fill:#998CFF;" width="7.571" height="0.512"/>
						
							<rect x="108.423" y="156.75" transform="matrix(0.9873 -0.1587 0.1587 0.9873 -23.4972 19.7997)" style="fill:#998CFF;" width="7.571" height="0.512"/>
					</g>
				</g>
				<g>
					<rect x="69.258" y="177.091" style="fill:#AFB7F3;" width="95.301" height="5.271"/>
					<rect x="69.258" y="161.851" style="fill:#AFB7F3;" width="2.508" height="20.511"/>
					<rect x="162.051" y="161.851" style="fill:#AFB7F3;" width="2.508" height="20.511"/>
				</g>
				<g>
					<rect x="69.258" y="230.633" style="fill:#AFB7F3;" width="95.301" height="5.271"/>
					<rect x="69.258" y="215.393" style="fill:#AFB7F3;" width="2.508" height="20.511"/>
					<rect x="162.051" y="215.393" style="fill:#AFB7F3;" width="2.508" height="20.511"/>
				</g>
				<g>
					<rect x="128.774" y="201.438" style="fill:#AFB7F3;" width="3.269" height="29.195"/>
					<rect x="132.043" y="199.864" style="fill:#998CFF;" width="3.269" height="30.77"/>
					<rect x="135.313" y="200.885" style="fill:#6E64E2;" width="3.269" height="29.748"/>
					<rect x="151.659" y="201.438" style="fill:#C1CAFF;" width="3.269" height="29.195"/>
					<rect x="154.929" y="199.864" style="fill:#6E64E2;" width="3.269" height="30.77"/>
					<rect x="158.198" y="200.885" style="fill:#AFB7F3;" width="3.269" height="29.748"/>
					<rect x="138.582" y="203.284" style="fill:#AFB7F3;" width="3.269" height="27.35"/>
					<rect x="141.851" y="201.438" style="fill:#C1CAFF;" width="3.269" height="29.195"/>
					<rect x="145.121" y="204.118" style="fill:#AFB7F3;" width="3.269" height="26.516"/>
					<rect x="148.39" y="203.284" style="fill:#998CFF;" width="3.269" height="27.35"/>
				</g>
			</g>
			<g>
				<path style="fill:#C1CAFF;" d="M206.425,182.079c-13.452,0-24.395-10.943-24.395-24.395c0-13.451,10.943-24.395,24.395-24.395
					c13.452,0,24.395,10.943,24.395,24.395C230.82,171.136,219.877,182.079,206.425,182.079z M206.425,135.289
					c-12.349,0-22.395,10.046-22.395,22.395c0,12.349,10.046,22.395,22.395,22.395s22.395-10.047,22.395-22.395
					C228.82,145.335,218.774,135.289,206.425,135.289z"/>
				<path style="fill:#C1CAFF;" d="M216.586,158.684h-10.161c-0.552,0-1-0.447-1-1v-14.696c0-0.553,0.448-1,1-1c0.552,0,1,0.447,1,1
					v13.696h9.161c0.552,0,1,0.447,1,1C217.586,158.236,217.138,158.684,216.586,158.684z"/>
				<path style="fill:#FFFFFF;" d="M205.448,181.079c-13.452,0-24.395-10.943-24.395-24.395c0-13.451,10.943-24.395,24.395-24.395
					c13.452,0,24.395,10.943,24.395,24.395C229.843,170.136,218.9,181.079,205.448,181.079z M205.448,134.289
					c-12.349,0-22.395,10.046-22.395,22.395c0,12.349,10.046,22.395,22.395,22.395s22.395-10.047,22.395-22.395
					C227.843,144.335,217.796,134.289,205.448,134.289z"/>
				<path style="fill:#FFFFFF;" d="M215.609,157.684h-10.161c-0.552,0-1-0.447-1-1v-14.696c0-0.553,0.448-1,1-1c0.552,0,1,0.447,1,1
					v13.696h9.161c0.552,0,1,0.447,1,1C216.609,157.237,216.161,157.684,215.609,157.684z"/>
				<path style="fill:#FFFFFF;" d="M208.767,156.684c0,1.833-1.486,3.319-3.319,3.319c-1.833,0-3.319-1.486-3.319-3.319
					c0-1.833,1.486-3.319,3.319-3.319C207.281,153.365,208.767,154.851,208.767,156.684z"/>
				<circle style="fill:#C1CAFF;" cx="205.448" cy="156.684" r="1.835"/>
				<path style="fill:#998CFF;" d="M205.448,157.519c-0.46,0-0.835-0.375-0.835-0.835c0-0.46,0.375-0.835,0.835-0.835
					c0.46,0,0.835,0.375,0.835,0.835C206.282,157.144,205.908,157.519,205.448,157.519z"/>
			</g>
		</g>
	</g>
	<g>
		<g>
			<path style="fill:#5342C0;" d="M99.833,441.767L99.833,441.767c-1.215-0.267-1.984-1.469-1.717-2.684l13.2-59.649
				c0.267-1.215,1.469-1.984,2.684-1.717v0c1.215,0.267,1.984,1.469,1.717,2.684l-13.2,59.648
				C102.25,441.266,101.048,442.034,99.833,441.767z"/>
			<path style="fill:#6E64E2;" d="M56.076,441.767L56.076,441.767c-1.215-0.267-1.984-1.469-1.717-2.684l13.2-59.649
				c0.267-1.215,1.469-1.984,2.684-1.717v0c1.215,0.267,1.984,1.469,1.717,2.684l-13.2,59.648
				C58.493,441.266,57.291,442.034,56.076,441.767z"/>
			<path style="fill:#6E64E2;" d="M164.272,441.812L164.272,441.812c1.24-0.105,2.16-1.196,2.054-2.435l-5.249-60.866
				c-0.105-1.24-1.196-2.16-2.435-2.054l0,0c-1.24,0.105-2.16,1.196-2.054,2.436l5.249,60.866
				C161.942,440.997,163.033,441.917,164.272,441.812z"/>
			<path style="fill:#6E64E2;" d="M115.508,441.812L115.508,441.812c1.24-0.105,2.16-1.196,2.054-2.435l-5.249-60.866
				c-0.105-1.24-1.196-2.16-2.435-2.054l0,0c-1.24,0.105-2.16,1.196-2.054,2.436l5.249,60.866
				C113.177,440.997,114.268,441.917,115.508,441.812z"/>
		</g>
		<g>
			<g>
				<path style="fill:#FFFFFF;" d="M64.826,291.478h36.838c4,0,7.355,3.023,7.776,7c2.74,25.889,2.72,48.996-0.058,74.883
					c-0.426,3.973-3.779,6.99-7.775,6.99H64.771c-4.709,0-8.314-4.132-7.743-8.805c3.013-24.666,3.03-46.604,0.053-71.274
					C56.518,295.601,60.122,291.478,64.826,291.478z"/>
				<path style="fill:#AFB7F3;" d="M72.232,291.478h36.838c4,0,7.355,3.023,7.776,7c2.74,25.889,2.72,48.996-0.057,74.883
					c-0.426,3.973-3.779,6.99-7.775,6.99H72.178c-4.708,0-8.314-4.132-7.743-8.805c3.013-24.666,3.03-46.604,0.053-71.274
					C63.924,295.601,67.529,291.478,72.232,291.478z"/>
			</g>
			<g>
				<path style="fill:#6E64E2;" d="M104.163,380.35H165.4l0,0c0-5.928-4.805-10.733-10.733-10.733H93.43l0,0
					C93.43,375.545,98.235,380.35,104.163,380.35z"/>
				<path style="fill:#FFFFFF;" d="M68.66,380.35h35.235l0,0c0-5.928-4.805-10.733-10.733-10.733H57.927l0,0
					C57.927,375.545,62.733,380.35,68.66,380.35z"/>
			</g>
		</g>
	</g>
	<g>
		<g>
			<g>
				<rect x="82.156" style="fill:#FFFFFF;" width="2.017" height="58.244"/>
				<rect x="201.038" style="fill:#FFFFFF;" width="2.017" height="58.244"/>
			</g>
			<g>
				<path style="fill:#C1CAFF;" d="M216.499,79.679H68.713c-2.738,0-4.958-2.22-4.958-4.958l0,0c0-2.738,2.22-4.958,4.958-4.958
					h147.786c2.738,0,4.958,2.22,4.958,4.958l0,0C221.457,77.46,219.237,79.679,216.499,79.679z"/>
				<path style="fill:#FFFFFF;" d="M231.056,74.721h-176.9l0,0c0-10.847,8.794-19.641,19.641-19.641h137.618
					C222.262,55.08,231.056,63.874,231.056,74.721L231.056,74.721z"/>
				<path style="fill:#897BF6;" d="M54.951,69.223h175.31c-0.117-0.401-0.254-0.792-0.395-1.182H55.346
					C55.205,68.431,55.068,68.822,54.951,69.223z"/>
			</g>
		</g>
		<g>
			<g>
				<rect x="314.55" style="fill:#FFFFFF;" width="2.017" height="58.244"/>
				<rect x="433.432" style="fill:#FFFFFF;" width="2.017" height="58.244"/>
			</g>
			<g>
				<path style="fill:#C1CAFF;" d="M448.893,79.679H301.107c-2.738,0-4.958-2.22-4.958-4.958l0,0c0-2.738,2.22-4.958,4.958-4.958
					h147.786c2.738,0,4.958,2.22,4.958,4.958l0,0C453.851,77.46,451.631,79.679,448.893,79.679z"/>
				<path style="fill:#FFFFFF;" d="M463.45,74.721h-176.9l0,0c0-10.847,8.794-19.641,19.641-19.641h137.618
					C454.656,55.08,463.45,63.874,463.45,74.721L463.45,74.721z"/>
				<path style="fill:#897BF6;" d="M287.345,69.223h175.31c-0.117-0.401-0.254-0.792-0.395-1.182H287.74
					C287.599,68.431,287.462,68.822,287.345,69.223z"/>
			</g>
		</g>
		<g>
			<g>
				<rect x="546.944" style="fill:#FFFFFF;" width="2.017" height="58.244"/>
				<rect x="665.826" style="fill:#FFFFFF;" width="2.017" height="58.244"/>
			</g>
			<g>
				<path style="fill:#C1CAFF;" d="M681.287,79.679H533.501c-2.738,0-4.958-2.22-4.958-4.958l0,0c0-2.738,2.22-4.958,4.958-4.958
					h147.786c2.738,0,4.958,2.22,4.958,4.958l0,0C686.245,77.46,684.025,79.679,681.287,79.679z"/>
				<path style="fill:#FFFFFF;" d="M695.844,74.721h-176.9l0,0c0-10.847,8.794-19.641,19.641-19.641h137.618
					C687.051,55.08,695.844,63.874,695.844,74.721L695.844,74.721z"/>
				<path style="fill:#897BF6;" d="M519.739,69.223h175.31c-0.117-0.401-0.254-0.792-0.395-1.182h-174.52
					C519.993,68.431,519.856,68.822,519.739,69.223z"/>
			</g>
		</g>
	</g>
	<g>
		<rect x="136.83" y="312.58" style="fill:#FFFFFF;" width="476.34" height="129.24"/>
		<g>
			<g>
				<path style="fill:#5342C0;" d="M291.235,297.329h-98.489c-4.062,0-7.355-3.293-7.355-7.355v-54.149
					c0-4.062,3.293-7.355,7.355-7.355h98.489c4.062,0,7.355,3.293,7.355,7.355v54.149
					C298.591,294.035,295.298,297.329,291.235,297.329z"/>
				<path style="fill:#8E75F5;" d="M268.15,259.91h-52.317c-2.158,0-3.907,1.749-3.907,3.907v19.763
					c0,2.158,1.749,3.907,3.907,3.907h52.317c2.158,0,3.907-1.749,3.907-3.907v-19.763
					C272.057,261.659,270.307,259.91,268.15,259.91z M270.057,283.58c0,1.052-0.855,1.907-1.907,1.907h-52.317
					c-1.051,0-1.907-0.855-1.907-1.907v-19.764c0-1.052,0.855-1.907,1.907-1.907h52.317c1.052,0,1.907,0.855,1.907,1.907V283.58z"/>
				<path style="fill:#5342C0;" d="M275.547,312.58h-67.113l0,0c0-3.489,2.829-6.318,6.318-6.318h54.477
					C272.719,306.262,275.547,309.091,275.547,312.58L275.547,312.58z"/>
				<path style="fill:#5342C0;" d="M315.395,312.58h-22.11l0,0c0-3.489,2.829-6.318,6.318-6.318h9.474
					C312.566,306.262,315.395,309.091,315.395,312.58L315.395,312.58z"/>
				<path style="fill:#6255C9;" d="M254.479,306.262h-24.977v-34.446c0-1.968,1.595-3.563,3.563-3.563h17.851
					c1.968,0,3.563,1.595,3.563,3.563V306.262z"/>
			</g>
			<g>
				<g>
					<path style="fill:#FFFFFF;" d="M209.089,308.468l-11.689-17.087v-7.224v-0.412h0.382c0.322,0,0.584-0.261,0.584-0.583
						c0-0.322-0.261-0.584-0.584-0.584h-6.831c-0.322,0-0.584,0.261-0.584,0.584c0,0.322,0.261,0.583,0.584,0.583h0.382v0.412v7.223
						l-11.689,17.088c-1.193,1.745,0.056,4.112,2.169,4.112h17.508h7.6C209.033,312.58,210.282,310.212,209.089,308.468z"/>
					<path style="fill:#E6BD36;" d="M201.316,298.877h-13.902l-6.947,10.155c-0.347,0.508-0.383,1.135-0.096,1.679
						c0.287,0.544,0.826,0.869,1.44,0.869h25.108c0.615,0,1.153-0.324,1.44-0.868c0.287-0.544,0.251-1.172-0.096-1.68
						L201.316,298.877z"/>
				</g>
				<g>
					<path style="fill:#FFFFFF;" d="M170.932,270.939c-1.495-0.646-2.391-2.203-2.391-3.832l0,0h-10.307l0,0
						c0,1.629-0.895,3.186-2.391,3.832c-0.199,0.086-0.405,0.159-0.617,0.217h0c-2.049,0.565-3.468,2.429-3.468,4.555v34.761
						c0,1.164,0.944,2.108,2.108,2.108h19.043c1.164,0,2.108-0.944,2.108-2.108v-34.761c0-2.125-1.419-3.989-3.469-4.555l0,0
						C171.337,271.098,171.131,271.025,170.932,270.939z"/>
					<rect x="157.617" y="265.017" style="fill:#ABAFF4;" width="11.54" height="2.09"/>
					<rect x="151.758" y="280.375" style="fill:#9EE3EE;" width="13.632" height="25.057"/>
				</g>
			</g>
			<g>
				<path style="fill:#5342C0;" d="M422.078,312.58h21.726v-3.683h-24.368v1.041C419.436,311.397,420.619,312.58,422.078,312.58z"/>
				<path style="fill:#675BCE;" d="M441.988,312.58h58.409c1.459,0,2.642-1.183,2.642-2.642v-1.041h-63.693v1.041
					C439.346,311.397,440.529,312.58,441.988,312.58z"/>
				<g>
					<path style="fill:#5342C0;" d="M441.083,309.974H501.3c1.108,0,2.058-0.792,2.257-1.882l6.919-37.823
						c0.258-1.409-0.825-2.707-2.257-2.707h-60.217c-1.108,0-2.058,0.792-2.257,1.882l-6.919,37.823
						C438.568,308.676,439.65,309.974,441.083,309.974z"/>
					<path style="fill:#998CFF;" d="M443.277,309.974h60.217c1.108,0,2.058-0.792,2.257-1.882l6.919-37.823
						c0.258-1.409-0.825-2.707-2.257-2.707h-60.217c-1.108,0-2.058,0.792-2.257,1.882l-6.919,37.823
						C440.763,308.676,441.845,309.974,443.277,309.974z"/>
				</g>
				<path style="fill:#B2AEFF;" d="M472.948,287.898c-0.577,3.339,1.211,6.436,3.993,6.917c2.782,0.48,5.505-1.837,6.081-5.177
					c0.577-3.34-1.211-6.436-3.993-6.917C476.247,282.241,473.524,284.559,472.948,287.898z"/>
			</g>
			<g>
				<g>
					<path style="fill:#FFFFFF;" d="M336.818,275.49h-7.005c-0.306,0-0.555,0.248-0.555,0.555c0,0.306,0.248,0.555,0.555,0.555
						h0.531v29.56c0,1.641,1.331,2.972,2.972,2.972l0,0c1.642,0,2.972-1.331,2.972-2.972V276.6h0.531
						c0.306,0,0.555-0.248,0.555-0.555C337.373,275.739,337.124,275.49,336.818,275.49z"/>
					<path style="fill:#D373B0;" d="M331.344,285.628v20.531c0,1.088,0.885,1.973,1.972,1.973c1.087,0,1.972-0.885,1.972-1.973
						v-20.531H331.344z"/>
					<path style="fill:#FFFFFF;" d="M347.199,275.49h-7.005c-0.306,0-0.555,0.248-0.555,0.555c0,0.306,0.248,0.555,0.555,0.555
						h0.531v29.56c0,1.641,1.331,2.972,2.972,2.972c1.641,0,2.972-1.331,2.972-2.972V276.6h0.531c0.306,0,0.555-0.248,0.555-0.555
						C347.754,275.739,347.505,275.49,347.199,275.49z"/>
					<path style="fill:#FFFFFF;" d="M357.58,275.49h-7.006c-0.306,0-0.555,0.248-0.555,0.555c0,0.306,0.248,0.555,0.555,0.555h0.531
						v29.56c0,1.641,1.331,2.972,2.972,2.972s2.972-1.331,2.972-2.972V276.6h0.531c0.306,0,0.555-0.248,0.555-0.555
						C358.135,275.739,357.886,275.49,357.58,275.49z"/>
					<path style="fill:#FFFFFF;" d="M367.961,275.49h-7.005c-0.306,0-0.555,0.248-0.555,0.555c0,0.306,0.248,0.555,0.555,0.555
						h0.531v29.56c0,1.641,1.331,2.972,2.972,2.972c1.641,0,2.972-1.331,2.972-2.972V276.6h0.531c0.306,0,0.555-0.248,0.555-0.555
						C368.516,275.739,368.267,275.49,367.961,275.49z"/>
					<path style="fill:#9EE3EE;" d="M341.724,285.628v20.531c0,1.088,0.885,1.973,1.972,1.973c1.087,0,1.972-0.885,1.972-1.973
						v-20.531H341.724z"/>
					<path style="fill:#D373B0;" d="M352.105,285.628v20.531c0,1.088,0.885,1.973,1.972,1.973c1.087,0,1.972-0.885,1.972-1.973
						v-20.531H352.105z"/>
					<path style="fill:#D373B0;" d="M362.486,285.628v20.531c0,1.088,0.885,1.973,1.972,1.973c1.087,0,1.972-0.885,1.972-1.973
						v-20.531H362.486z"/>
				</g>
				<path style="fill:#6459C3;" d="M371.399,309.132v-26.469v-1.229h-1.229h-42.566h-1.229v1.229v26.469h-3.207v3.448h51.439v-3.448
					H371.399z M327.604,309.132v-26.469h42.566v26.469H327.604z"/>
			</g>
			<g>
				<g>
					<path style="fill:#5342C0;" d="M578.143,299.196l-1.336-9.727c14.105-1.937,24.005-14.988,22.068-29.093l-0.544-3.963
						l9.727-1.336l0.544,3.963C611.276,278.509,597.612,296.523,578.143,299.196z"/>
					<path style="fill:#998CFF;" d="M579.95,291.731c14.146-3.369,23.723-17.037,21.705-31.737l-0.163-1.184l4.169-0.572
						l0.163,1.184c2.334,17-8.853,32.797-25.299,36.496L579.95,291.731z"/>
				</g>
				<g>
					<path style="fill:#5342C0;" d="M565.467,267.07L565.467,267.07c-1.068,0.741-2.535,0.476-3.276-0.592l-1.534-2.211
						c-0.741-1.068-0.476-2.535,0.592-3.276l0,0L565.467,267.07z"/>
					<path style="fill:#675BCE;" d="M574.598,263.946l-6.138,4.259c-0.822,0.57-1.951,0.366-2.521-0.456l-5.16-7.437
						c-0.57-0.822-0.366-1.951,0.456-2.521l6.138-4.259L574.598,263.946z"/>
					
						<rect x="564.537" y="237.105" transform="matrix(0.8216 -0.5701 0.5701 0.8216 -34.8533 380.041)" style="fill:#FFFFFF;" width="50.48" height="17.203"/>
					
						<rect x="588.121" y="235.916" transform="matrix(0.8216 -0.5701 0.5701 0.8216 -33.8703 380.8044)" style="fill:#C1C9FF;" width="6.738" height="17.203"/>
					<polygon style="fill:#675BCE;" points="616.07,234.217 615.417,238.385 605.611,224.251 609.396,224.598 					"/>
					
						<rect x="612.062" y="221.105" transform="matrix(0.8216 -0.5701 0.5701 0.8216 -19.345 392.1005)" style="fill:#5342C0;" width="9.472" height="11.708"/>
				</g>
				<path style="fill:#675BCE;" d="M563.781,295.253h-25.421c-2.356,0-4.265-1.91-4.265-4.265l0,0h33.951l0,0
					C568.046,293.343,566.136,295.253,563.781,295.253z"/>
				<g>
					<path style="fill:#5342C0;" d="M572.254,284.341c-5.013,0-9.077,4.064-9.077,9.077v19.162h18.154v-19.162
						C581.331,288.405,577.267,284.341,572.254,284.341z"/>
					<path style="fill:#998CFF;" d="M577.545,293.12c0,2.922-2.369,5.292-5.291,5.292c-2.922,0-5.292-2.369-5.292-5.292
						c0-2.922,2.369-5.291,5.292-5.291C575.176,287.829,577.545,290.198,577.545,293.12z"/>
					<circle style="fill:#B2AEFF;" cx="572.254" cy="293.12" r="2.104"/>
				</g>
				<path style="fill:#5342C0;" d="M596.491,312.484h-65.093l0,0c0-2.707,2.195-4.902,4.902-4.902h55.289
					C594.297,307.582,596.491,309.777,596.491,312.484L596.491,312.484z"/>
				<g>
					<path style="fill:#5342C0;" d="M611.615,250.341c0.682,4.966-2.791,9.545-7.758,10.227c-4.966,0.682-9.545-2.791-10.227-7.758
						c-0.682-4.966,2.791-9.545,7.758-10.227C606.354,241.901,610.933,245.374,611.615,250.341z"/>
					<path style="fill:#998CFF;" d="M607.914,251.576c0,2.922-2.369,5.291-5.292,5.291c-2.922,0-5.292-2.369-5.292-5.291
						c0-2.922,2.369-5.291,5.292-5.291C605.544,246.284,607.914,248.653,607.914,251.576z"/>
					<path style="fill:#B2AEFF;" d="M604.726,251.576c0,1.162-0.942,2.104-2.104,2.104c-1.162,0-2.104-0.942-2.104-2.104
						c0-1.162,0.942-2.104,2.104-2.104C603.784,249.471,604.726,250.414,604.726,251.576z"/>
				</g>
			</g>
			<g>
				<g>
					<path style="fill:#FFFFFF;" d="M401.723,259.362v-13.33v-0.601h0.342c0.471,0,0.852-0.382,0.852-0.852
						s-0.382-0.852-0.852-0.852h-7.34c-0.471,0-0.852,0.382-0.852,0.852s0.382,0.852,0.852,0.852h0.342v0.601v13.33
						c-6.074,1.494-10.586,6.961-10.586,13.497c0,7.685,6.23,13.914,13.914,13.914c7.685,0,13.914-6.23,13.914-13.914
						C412.31,266.324,407.798,260.856,401.723,259.362z"/>
					<path style="fill:#E6BD36;" d="M387.732,266.515c-1.114,1.87-1.751,4.042-1.751,6.344c0,6.845,5.569,12.414,12.414,12.414
						c6.845,0,12.414-5.569,12.414-12.414c0-2.302-0.637-4.475-1.751-6.344H387.732z"/>
				</g>
				<g>
					<g>
						<rect x="379.156" y="220.508" style="fill:#6459C3;" width="2.028" height="92.072"/>
						<rect x="374.233" y="251.312" style="fill:#6459C3;" width="38.878" height="1.826"/>
						<rect x="374.233" y="306.262" style="fill:#6459C3;" width="38.878" height="6.318"/>
					</g>
					<rect x="394.324" y="250.334" style="fill:#6459C3;" width="8.253" height="3.909"/>
					<rect x="374.233" y="250.334" style="fill:#6459C3;" width="8.253" height="3.909"/>
				</g>
			</g>
			<g>
				<g>
					<path style="fill:#FFFFFF;" d="M520.393,308.468l-11.689-17.087v-7.224v-0.412h0.382c0.322,0,0.584-0.261,0.584-0.583
						c0-0.322-0.261-0.584-0.584-0.584h-6.831c-0.322,0-0.584,0.261-0.584,0.584c0,0.322,0.261,0.583,0.584,0.583h0.382v0.412v7.223
						l-11.689,17.088c-1.193,1.745,0.056,4.112,2.169,4.112h17.507h7.601C520.337,312.58,521.586,310.212,520.393,308.468z"/>
					<path style="fill:#9EE3EE;" d="M512.62,298.877h-13.902l-6.947,10.155c-0.347,0.508-0.383,1.135-0.096,1.679
						c0.287,0.544,0.826,0.869,1.44,0.869h25.108c0.615,0,1.153-0.324,1.44-0.868c0.287-0.544,0.251-1.172-0.096-1.68
						L512.62,298.877z"/>
				</g>
				<g>
					<path style="fill:#FFFFFF;" d="M537.897,308.789l-10.777-15.754v-24.878v-0.379h0.352c0.297,0,0.538-0.241,0.538-0.538
						c0-0.297-0.241-0.538-0.538-0.538h-6.298c-0.297,0-0.538,0.241-0.538,0.538c0,0.297,0.241,0.538,0.538,0.538h0.352v0.379
						v24.877l-10.777,15.753c-1.1,1.608,0.051,3.792,2,3.792h16.141h7.007C537.845,312.58,538.996,310.397,537.897,308.789z"/>
					<path style="fill:#D373B0;" d="M533.322,303.873h-17.999l-3.749,5.48c-0.304,0.443-0.335,0.992-0.084,1.468
						c0.251,0.476,0.722,0.76,1.259,0.76h23.148c0.537,0,1.008-0.284,1.259-0.759c0.25-0.476,0.219-1.024-0.084-1.468
						L533.322,303.873z"/>
				</g>
			</g>
		</g>
	</g>
	<g>
		<g>
			<g>
				<defs>
					<polygon id="SVGID_1_" points="493.091,437.422 454.264,437.422 450.263,386.986 497.092,386.986 					"/>
				</defs>
				<clipPath id="SVGID_00000163054304103980740780000003543910289140179871_">
					<use xlink:href="#SVGID_1_"  style="overflow:visible;"/>
				</clipPath>
				<path style="clip-path:url(#SVGID_00000163054304103980740780000003543910289140179871_);fill:#AFB7F3;" d="M494.697,429.531
					l3.568-3.568v-1.805l-3.568-3.568l3.568-3.568v-1.805l-3.568-3.568l3.568-3.568v-1.805l-3.568-3.568l3.568-3.568v-1.805
					l-3.568-3.568l3.568-3.568v-1.805l-3.568-3.568l3.568-3.568v-1.805l-3.568-3.568l1.815-1.815h-1.805l-0.912,0.912l-0.912-0.912
					h-1.805l1.815,1.815l-3.568,3.568l-3.568-3.568l1.815-1.815h-1.805l-0.912,0.912l-0.912-0.912h-1.805l1.815,1.815l-3.568,3.568
					l-3.568-3.568l1.815-1.815h-1.805l-0.912,0.912L475,374.072h-1.805l1.815,1.815l-3.568,3.568l-3.568-3.568l1.815-1.815h-1.805
					l-0.912,0.912l-0.912-0.912h-1.805l1.815,1.815l-3.568,3.568l-3.568-3.568l1.815-1.815h-1.805l-0.912,0.912l-0.912-0.912h-1.805
					l1.815,1.815l-3.568,3.568l-4.47-4.47v1.805l3.568,3.568l-3.568,3.568v1.805l3.568,3.568l-3.568,3.568v1.805l3.568,3.568
					l-3.568,3.568v1.805l3.568,3.568l-3.568,3.568v1.805l3.568,3.568l-3.568,3.568v1.805l3.568,3.568l-3.568,3.568v1.805
					l3.568,3.568l-3.568,3.568v1.805l0.048,0.048h1.056l0.375-0.375l-0.575-0.576l3.568-3.568l3.568,3.568l-0.576,0.576l0.375,0.375
					h1.056l0.048-0.048l0.048,0.048h1.056l0.375-0.375l-0.576-0.576l3.568-3.568l3.568,3.568l-0.575,0.576l0.375,0.375h1.056
					l0.048-0.048l0.048,0.048h1.055l0.375-0.375l-0.575-0.576l3.568-3.568l3.568,3.568l-0.576,0.576l0.375,0.375h1.056l0.048-0.048
					l0.048,0.048h1.056l0.375-0.375l-0.576-0.576l3.568-3.568l3.568,3.568l-0.575,0.576l0.375,0.375h1.056l0.048-0.048l0.048,0.048
					h1.056l0.375-0.375l-0.576-0.576l3.568-3.568l3.568,3.568l-0.576,0.576l0.375,0.375h1.056l0.048-0.048l0.048,0.048h1.056
					l0.375-0.375l-0.575-0.576l3.568-3.568v-1.805L494.697,429.531z M497.362,425.061l-3.568,3.568l-3.568-3.568l3.568-3.568
					L497.362,425.061z M481.285,398.239l3.568-3.568l3.568,3.568l-3.568,3.568L481.285,398.239z M488.421,407.179l-3.568,3.568
					l-3.568-3.568l3.568-3.568L488.421,407.179z M483.951,402.709l-3.568,3.568l-3.568-3.568l3.568-3.568L483.951,402.709z
					 M479.481,407.179l-3.568,3.568l-3.568-3.568l3.568-3.568L479.481,407.179z M475.913,401.806l-3.568-3.568l3.568-3.568
					l3.568,3.568L475.913,401.806z M475.01,402.709l-3.568,3.568l-3.568-3.568l3.568-3.568L475.01,402.709z M470.54,407.179
					l-3.568,3.568l-3.568-3.568l3.568-3.568L470.54,407.179z M466.972,401.806l-3.568-3.568l3.568-3.568l3.568,3.568
					L466.972,401.806z M466.069,402.709l-3.568,3.568l-3.568-3.568l3.568-3.568L466.069,402.709z M466.069,411.65l-3.568,3.568
					l-3.568-3.568l3.568-3.568L466.069,411.65z M466.972,412.552l3.568,3.568l-3.568,3.568l-3.568-3.568L466.972,412.552z
					 M467.874,411.65l3.568-3.568l3.568,3.568l-3.568,3.568L467.874,411.65z M475.913,412.552l3.568,3.568l-3.568,3.568
					l-3.568-3.568L475.913,412.552z M476.815,411.65l3.568-3.568l3.568,3.568l-3.568,3.568L476.815,411.65z M484.853,412.552
					l3.568,3.568l-3.568,3.568l-3.568-3.568L484.853,412.552z M485.756,411.65l3.568-3.568l3.568,3.568l-3.568,3.568L485.756,411.65
					z M489.324,406.277l-3.568-3.568l3.568-3.568l3.568,3.568L489.324,406.277z M485.756,393.768l3.568-3.568l3.568,3.568
					l-3.568,3.568L485.756,393.768z M484.853,392.866l-3.568-3.568l3.568-3.568l3.568,3.568L484.853,392.866z M483.951,393.768
					l-3.568,3.568l-3.568-3.568l3.568-3.568L483.951,393.768z M475.913,392.866l-3.568-3.568l3.568-3.568l3.568,3.568
					L475.913,392.866z M475.01,393.768l-3.568,3.568l-3.568-3.568l3.568-3.568L475.01,393.768z M466.972,392.866l-3.568-3.568
					l3.568-3.568l3.568,3.568L466.972,392.866z M466.069,393.768l-3.568,3.568l-3.568-3.568l3.568-3.568L466.069,393.768z
					 M458.031,392.866l-3.568-3.568l3.568-3.568l3.568,3.568L458.031,392.866z M461.599,398.239l-3.568,3.568l-3.568-3.568
					l3.568-3.568L461.599,398.239z M461.599,407.179l-3.568,3.568l-3.568-3.568l3.568-3.568L461.599,407.179z M461.599,416.12
					l-3.568,3.568l-3.568-3.568l3.568-3.568L461.599,416.12z M461.599,425.061l-3.568,3.568l-3.568-3.568l3.568-3.568
					L461.599,425.061z M458.934,420.591l3.568-3.568l3.568,3.568l-3.568,3.568L458.934,420.591z M466.972,421.493l3.568,3.568
					l-3.568,3.568l-3.568-3.568L466.972,421.493z M467.874,420.591l3.568-3.568l3.568,3.568l-3.568,3.568L467.874,420.591z
					 M475.913,421.493l3.568,3.568l-3.568,3.568l-3.568-3.568L475.913,421.493z M476.815,420.591l3.568-3.568l3.568,3.568
					l-3.568,3.568L476.815,420.591z M484.853,421.493l3.568,3.568l-3.568,3.568l-3.568-3.568L484.853,421.493z M485.756,420.591
					l3.568-3.568l3.568,3.568l-3.568,3.568L485.756,420.591z M497.362,416.12l-3.568,3.568l-3.568-3.568l3.568-3.568L497.362,416.12
					z M497.362,407.179l-3.568,3.568l-3.568-3.568l3.568-3.568L497.362,407.179z M497.362,398.239l-3.568,3.568l-3.568-3.568
					l3.568-3.568L497.362,398.239z M497.362,389.298l-3.568,3.568l-3.568-3.568l3.568-3.568L497.362,389.298z M493.794,376.789
					l3.568,3.568l-3.568,3.568l-3.568-3.568L493.794,376.789z M489.324,381.259l3.568,3.568l-3.568,3.568l-3.568-3.568
					L489.324,381.259z M484.853,376.789l3.568,3.568l-3.568,3.568l-3.568-3.568L484.853,376.789z M483.951,384.827l-3.568,3.568
					l-3.568-3.568l3.568-3.568L483.951,384.827z M475.913,376.789l3.568,3.568l-3.568,3.568l-3.568-3.568L475.913,376.789z
					 M475.01,384.827l-3.568,3.568l-3.568-3.568l3.568-3.568L475.01,384.827z M466.972,376.789l3.568,3.568l-3.568,3.568
					l-3.568-3.568L466.972,376.789z M466.069,384.827l-3.568,3.568l-3.568-3.568l3.568-3.568L466.069,384.827z M458.031,376.789
					l3.568,3.568l-3.568,3.568l-3.568-3.568L458.031,376.789z M449.993,384.827l3.568-3.568l3.568,3.568l-3.568,3.568
					L449.993,384.827z M449.993,393.768l3.568-3.568l3.568,3.568l-3.568,3.568L449.993,393.768z M449.993,402.709l3.568-3.568
					l3.568,3.568l-3.568,3.568L449.993,402.709z M449.993,411.65l3.568-3.568l3.568,3.568l-3.568,3.568L449.993,411.65z
					 M449.993,420.591l3.568-3.568l3.568,3.568l-3.568,3.568L449.993,420.591z M449.993,429.531l3.568-3.568l3.568,3.568
					l-3.568,3.568L449.993,429.531z M458.031,437.57l-3.568-3.568l3.568-3.568l3.568,3.568L458.031,437.57z M458.934,429.531
					l3.568-3.568l3.568,3.568l-3.568,3.568L458.934,429.531z M466.972,437.57l-3.568-3.568l3.568-3.568l3.568,3.568L466.972,437.57z
					 M467.874,429.531l3.568-3.568l3.568,3.568l-3.568,3.568L467.874,429.531z M475.913,437.57l-3.568-3.568l3.568-3.568
					l3.568,3.568L475.913,437.57z M476.815,429.531l3.568-3.568l3.568,3.568l-3.568,3.568L476.815,429.531z M484.853,437.57
					l-3.568-3.568l3.568-3.568l3.568,3.568L484.853,437.57z M485.756,429.531l3.568-3.568l3.568,3.568l-3.568,3.568L485.756,429.531
					z M493.794,437.57l-3.568-3.568l3.568-3.568l3.568,3.568L493.794,437.57z"/>
			</g>
			<g>
				<path style="fill:#998CFF;" d="M499.094,386.986h-50.832c-1.215,0-2.199-0.985-2.199-2.199l0,0c0-1.214,0.985-2.199,2.199-2.199
					h50.832c1.214,0,2.199,0.985,2.199,2.199l0,0C501.293,386.001,500.308,386.986,499.094,386.986z"/>
				<path style="fill:#998CFF;" d="M493.703,441.82h-40.051c-1.215,0-2.199-0.985-2.199-2.199l0,0c0-1.215,0.984-2.199,2.199-2.199
					h40.051c1.215,0,2.199,0.985,2.199,2.199l0,0C495.902,440.836,494.917,441.82,493.703,441.82z"/>
			</g>
		</g>
		<g>
			<g>
				<path style="fill:#5342C0;" d="M650.167,441.767L650.167,441.767c1.215-0.267,1.984-1.469,1.717-2.684l-13.2-59.649
					c-0.267-1.215-1.469-1.984-2.684-1.717v0c-1.215,0.267-1.984,1.469-1.717,2.684l13.2,59.648
					C647.75,441.266,648.952,442.034,650.167,441.767z"/>
				<path style="fill:#5342C0;" d="M693.924,441.767L693.924,441.767c1.215-0.267,1.984-1.469,1.717-2.684l-13.2-59.649
					c-0.267-1.215-1.469-1.984-2.684-1.717v0c-1.215,0.267-1.984,1.469-1.717,2.684l13.2,59.648
					C691.507,441.266,692.709,442.034,693.924,441.767z"/>
				<path style="fill:#6E64E2;" d="M585.728,441.812L585.728,441.812c-1.24-0.105-2.16-1.196-2.054-2.435l5.249-60.866
					c0.105-1.24,1.196-2.16,2.435-2.054l0,0c1.24,0.105,2.16,1.196,2.054,2.436l-5.249,60.866
					C588.058,440.997,586.967,441.917,585.728,441.812z"/>
				<path style="fill:#6E64E2;" d="M634.492,441.812L634.492,441.812c-1.24-0.105-2.16-1.196-2.054-2.435l5.249-60.866
					c0.105-1.24,1.196-2.16,2.435-2.054l0,0c1.24,0.105,2.16,1.196,2.054,2.436l-5.249,60.866
					C636.823,440.997,635.732,441.917,634.492,441.812z"/>
			</g>
			<g>
				<g>
					<path style="fill:#6E64E2;" d="M685.174,291.478h-36.838c-4,0-7.355,3.023-7.776,7c-2.74,25.889-2.72,48.996,0.057,74.883
						c0.426,3.973,3.779,6.99,7.775,6.99h36.836c4.708,0,8.314-4.132,7.743-8.805c-3.012-24.666-3.03-46.604-0.053-71.274
						C693.482,295.601,689.878,291.478,685.174,291.478z"/>
					<path style="fill:#FFFFFF;" d="M677.767,291.478H640.93c-4,0-7.355,3.023-7.776,7c-2.74,25.889-2.72,48.996,0.057,74.883
						c0.426,3.973,3.779,6.99,7.775,6.99h36.836c4.708,0,8.314-4.132,7.743-8.805c-3.013-24.666-3.03-46.604-0.053-71.274
						C686.076,295.601,682.471,291.478,677.767,291.478z"/>
				</g>
				<g>
					<path style="fill:#CFDAFE;" d="M645.837,380.35H584.6l0,0c0-5.928,4.805-10.733,10.733-10.733h61.237l0,0
						C656.57,375.545,651.765,380.35,645.837,380.35z"/>
					<path style="fill:#6E64E2;" d="M681.34,380.35h-35.236l0,0c0-5.928,4.805-10.733,10.733-10.733h35.235l0,0
						C692.073,375.545,687.267,380.35,681.34,380.35z"/>
				</g>
			</g>
		</g>
		<g>
			<g>
				<path style="fill:#9094E5;" d="M180.712,349.918v91.902h85.145v-91.902H180.712z M260.857,441.812h-75.145v-13.55h75.145
					V441.812z"/>
				<path style="fill:#ABAFF4;" d="M158.686,349.918v91.902h85.145v-91.902H158.686z M238.831,441.812h-75.145v-13.55h75.145
					V441.812z"/>
				
					<rect x="167.808" y="350.796" transform="matrix(-1.836970e-16 1 -1 -1.836970e-16 589.6273 187.1097)" style="fill:#9094E5;" width="66.901" height="75.145"/>
				<g>
					<rect x="165.612" y="357.085" style="fill:#ABAFF4;" width="35.001" height="62.552"/>
					<rect x="201.904" y="357.085" style="fill:#ABAFF4;" width="35.001" height="62.552"/>
				</g>
				<g>
					<circle style="fill:#6E64E2;" cx="195.719" cy="388.361" r="2.389"/>
					<path style="fill:#6E64E2;" d="M209.188,388.361c0,1.319-1.07,2.389-2.389,2.389c-1.319,0-2.389-1.07-2.389-2.389
						s1.07-2.389,2.389-2.389C208.118,385.972,209.188,387.042,209.188,388.361z"/>
				</g>
				<rect x="163.686" y="428.262" style="fill:#9094E5;" width="4.043" height="13.558"/>
				<rect x="243.831" y="428.262" style="fill:#9094E5;" width="4.043" height="13.558"/>
				<rect x="185.712" y="428.262" style="fill:#9094E5;" width="4.043" height="13.558"/>
				<rect x="180.712" y="428.262" style="fill:#ABAFF4;" width="5" height="13.558"/>
				<rect x="256.814" y="428.262" style="fill:#9094E5;" width="4.043" height="13.558"/>
				<rect x="256.814" y="428.262" style="fill:#ABAFF4;" width="5" height="13.558"/>
			</g>
			<g>
				<g>
					<path style="fill:#675BCE;" d="M252.192,405.549l17.703,36.271h6.566l-3.514-7.199h33.249l3.514,7.199h6.566l-17.703-36.271
						H252.192z M294.887,411.45l3.33,6.823h-33.249l-3.33-6.823H294.887z M270.594,429.799l-3.272-6.704h33.249l3.272,6.704H270.594
						z"/>
					<path style="fill:#9094E5;" d="M250.049,405.549l17.703,36.271h6.566l-3.514-7.199h33.249l3.514,7.199h6.566l-17.703-36.271
						H250.049z M292.744,411.45l3.33,6.823h-33.249l-3.33-6.823H292.744z M268.45,429.799l-3.272-6.704h33.249l3.272,6.704H268.45z"
						/>
				</g>
				<g>
					<path style="fill:#AFB7F3;" d="M239.21,405.549l-17.703,36.271h6.566l3.514-7.199h33.249l-3.514,7.199h6.566l17.703-36.271
						H239.21z M276.145,411.45l-3.33,6.823h-33.249l3.33-6.823H276.145z M233.94,429.799l3.272-6.704h33.249l-3.272,6.704H233.94z"
						/>
					<path style="fill:#CFDAFE;" d="M236.084,405.549l-17.703,36.271h6.566l3.514-7.199h33.249l-3.514,7.199h6.566l17.703-36.271
						H236.084z M273.019,411.45l-3.33,6.823H236.44l3.33-6.823H273.019z M230.814,429.799l3.272-6.704h33.249l-3.272,6.704H230.814z
						"/>
				</g>
				<path style="fill:#AFB7F3;" d="M298.652,405.549h-48.927c-2.061,0-3.732-1.671-3.732-3.732l0,0h56.39l0,0
					C302.383,403.879,300.712,405.549,298.652,405.549z"/>
				<path style="fill:#CFDAFE;" d="M285.702,405.549h-48.927c-2.061,0-3.732-1.671-3.732-3.732l0,0h56.39l0,0
					C289.434,403.879,287.763,405.549,285.702,405.549z"/>
			</g>
		</g>
		<g>
			<g>
				
					<rect x="542.192" y="411.646" transform="matrix(6.123234e-17 -1 1 6.123234e-17 113.8255 984.0124)" style="fill:#E6BD36;" width="13.453" height="46.895"/>
				<path style="fill:#FFFFFF;" d="M564.301,431.886c1.771,0,3.207,1.436,3.207,3.207c0,1.771-1.436,3.207-3.207,3.207
					c-1.771,0-3.207-1.436-3.207-3.207C561.094,433.322,562.529,431.886,564.301,431.886z"/>
				
					<rect x="539.747" y="424.033" transform="matrix(6.123234e-17 -1 1 6.123234e-17 109.7359 979.9229)" style="fill:#FFFFFF;" width="10.166" height="22.121"/>
				<g>
					
						<rect x="534.101" y="434.745" transform="matrix(6.123234e-17 -1 1 6.123234e-17 103.1713 973.2147)" style="fill:#CFDAFE;" width="8.185" height="0.553"/>
					
						<rect x="536.755" y="434.745" transform="matrix(6.123234e-17 -1 1 6.123234e-17 105.8259 975.8693)" style="fill:#CFDAFE;" width="8.185" height="0.553"/>
					
						<rect x="539.41" y="434.745" transform="matrix(6.123234e-17 -1 1 6.123234e-17 108.4805 978.5238)" style="fill:#CFDAFE;" width="8.185" height="0.553"/>
					
						<rect x="542.064" y="434.745" transform="matrix(6.123234e-17 -1 1 6.123234e-17 111.135 981.1783)" style="fill:#CFDAFE;" width="8.185" height="0.553"/>
					
						<rect x="544.719" y="434.745" transform="matrix(6.123234e-17 -1 1 6.123234e-17 113.7896 983.8329)" style="fill:#CFDAFE;" width="8.185" height="0.553"/>
					
						<rect x="547.373" y="434.745" transform="matrix(6.123234e-17 -1 1 6.123234e-17 116.4441 986.4874)" style="fill:#CFDAFE;" width="8.185" height="0.553"/>
				</g>
			</g>
			<g>
				
					<rect x="542.192" y="398.193" transform="matrix(6.123234e-17 -1 1 6.123234e-17 127.2789 970.559)" style="fill:#D373B0;" width="13.453" height="46.895"/>
				<path style="fill:#FFFFFF;" d="M564.301,418.433c1.771,0,3.207,1.436,3.207,3.207c0,1.771-1.436,3.207-3.207,3.207
					c-1.771,0-3.207-1.436-3.207-3.207C561.094,419.869,562.529,418.433,564.301,418.433z"/>
				
					<rect x="539.746" y="410.579" transform="matrix(6.123234e-17 -1 1 6.123234e-17 123.1894 966.4694)" style="fill:#FFFFFF;" width="10.166" height="22.121"/>
				<g>
					
						<rect x="534.101" y="421.292" transform="matrix(6.123234e-17 -1 1 6.123234e-17 116.6247 959.7612)" style="fill:#CFDAFE;" width="8.185" height="0.553"/>
					
						<rect x="536.755" y="421.292" transform="matrix(6.123234e-17 -1 1 6.123234e-17 119.2793 962.4158)" style="fill:#CFDAFE;" width="8.185" height="0.553"/>
					
						<rect x="539.41" y="421.292" transform="matrix(6.123234e-17 -1 1 6.123234e-17 121.9339 965.0704)" style="fill:#CFDAFE;" width="8.185" height="0.553"/>
					
						<rect x="542.064" y="421.292" transform="matrix(6.123234e-17 -1 1 6.123234e-17 124.5884 967.7249)" style="fill:#CFDAFE;" width="8.185" height="0.553"/>
					
						<rect x="544.719" y="421.292" transform="matrix(6.123234e-17 -1 1 6.123234e-17 127.243 970.3795)" style="fill:#CFDAFE;" width="8.185" height="0.553"/>
					
						<rect x="547.373" y="421.292" transform="matrix(6.123234e-17 -1 1 6.123234e-17 129.8975 973.0341)" style="fill:#CFDAFE;" width="8.185" height="0.553"/>
				</g>
			</g>
		</g>
	</g>
</g>
</svg>
