<?xml version="1.0" encoding="utf-8"?>
<!-- Generator: Adobe Illustrator 27.5.0, SVG Export Plug-In . SVG Version: 6.00 Build 0)  -->
<svg version="1.1" xmlns="http://www.w3.org/2000/svg" xmlns:xlink="http://www.w3.org/1999/xlink" x="0px" y="0px"
	 viewBox="0 0 500 500" style="enable-background:new 0 0 500 500;" xml:space="preserve">
<g id="Background_complete">
	<g>
		<g>
			<g>
				<g>
					<g>
						<path style="fill:#E0E0E0;" d="M443.92,330.198H263.174c-3.232,0-5.862-2.63-5.862-5.862V61.062
							c0-3.232,2.63-5.862,5.862-5.862H443.92c3.232,0,5.862,2.629,5.862,5.862v263.273
							C449.783,327.568,447.153,330.198,443.92,330.198z M263.174,55.45c-3.095,0-5.612,2.518-5.612,5.612v263.273
							c0,3.095,2.518,5.612,5.612,5.612H443.92c3.095,0,5.612-2.518,5.612-5.612V61.062c0-3.094-2.518-5.612-5.612-5.612H263.174z"
							/>
					</g>
				</g>
				<g>
					<g>
						<path style="fill:#E0E0E0;" d="M235.493,330.198H54.746c-3.232,0-5.862-2.63-5.862-5.862V61.062
							c0-3.232,2.629-5.862,5.862-5.862h180.747c3.232,0,5.862,2.629,5.862,5.862v263.273
							C241.355,327.568,238.725,330.198,235.493,330.198z M54.746,55.45c-3.094,0-5.612,2.518-5.612,5.612v263.273
							c0,3.095,2.518,5.612,5.612,5.612h180.747c3.095,0,5.612-2.518,5.612-5.612V61.062c0-3.094-2.518-5.612-5.612-5.612H54.746z"
							/>
					</g>
				</g>
			</g>
			<g>
				<g>
					<rect x="0" y="391.267" style="fill:#E0E0E0;" width="500" height="0.25"/>
				</g>
			</g>
		</g>
		<rect x="51.672" y="405.531" style="fill:#E0E0E0;" width="16.06" height="0.25"/>
		<rect x="170.352" y="402.821" style="fill:#E0E0E0;" width="53.53" height="0.25"/>
		<rect x="68.732" y="414.821" style="fill:#E0E0E0;" width="36.25" height="0.25"/>
		<rect x="378.352" y="402.691" style="fill:#E0E0E0;" width="43.19" height="0.25"/>
		<rect x="430.452" y="402.691" style="fill:#E0E0E0;" width="6.33" height="0.25"/>
		<rect x="316.212" y="408.921" style="fill:#E0E0E0;" width="53.89" height="0.25"/>
	</g>
	<g>
		<rect x="227.623" y="250.544" style="fill:#F5F5F5;" width="56.131" height="18.17"/>
	</g>
	<g>
		<rect x="394.31" y="137.653" style="fill:#F5F5F5;" width="56.131" height="18.17"/>
	</g>
	<g>
		<rect x="402.079" y="332.427" style="fill:#F5F5F5;" width="56.131" height="18.17"/>
	</g>
	<g>
		<rect x="140.093" y="29.489" style="fill:#F5F5F5;" width="56.131" height="18.17"/>
	</g>
	<g>
		<rect x="327.385" y="215.15" style="fill:#EBEBEB;" width="56.131" height="18.17"/>
		<rect x="349.867" y="232.801" style="fill:#F5F5F5;" width="56.131" height="18.17"/>
	</g>
	<g>
		<rect x="394.31" y="42.504" style="fill:#EBEBEB;" width="56.131" height="18.17"/>
		<rect x="416.793" y="60.156" style="fill:#F5F5F5;" width="56.131" height="18.17"/>
	</g>
	<g>
		<rect x="112.028" y="349.189" style="fill:#EBEBEB;" width="56.131" height="18.17"/>
		<rect x="134.51" y="366.841" style="fill:#F5F5F5;" width="56.131" height="18.17"/>
	</g>
	<g>
		<rect x="41.299" y="203.679" style="fill:#F0F0F0;" width="56.131" height="18.17"/>
		<rect x="63.782" y="221.331" style="fill:#F5F5F5;" width="56.131" height="18.17"/>
	</g>
	<g>
		<g>
			<rect x="58.975" y="154.256" style="fill:#E6E6E6;" width="174.658" height="9.773"/>
			<rect x="76.901" y="161.681" style="fill:#E6E6E6;" width="8.548" height="15.117"/>
			<rect x="205.553" y="161.681" style="fill:#E6E6E6;" width="8.548" height="15.117"/>
		</g>
		<g>
			<g>
				<path style="fill:#EBEBEB;" d="M146.06,145.838l-11.964-58.16h-21.351h-2.365H89.027l-11.965,58.16
					c-0.884,4.299,1.963,8.418,5.819,8.418h27.497h2.365h27.497C144.097,154.256,146.945,150.137,146.06,145.838z"/>
				<g>
					<path style="fill:#E6E6E6;" d="M112.744,87.678H87.886c-1.353,0-2.449-1.097-2.449-2.449v0c0-1.353,1.097-2.449,2.449-2.449
						h24.858V87.678z"/>
					<path style="fill:#E6E6E6;" d="M110.379,87.678h24.858c1.353,0,2.449-1.097,2.449-2.449v0c0-1.353-1.097-2.449-2.449-2.449
						h-24.858V87.678z"/>
				</g>
				<path style="fill:#EBEBEB;" d="M131.493,87.678H91.794l-11.103,57.568c-0.494,2.561,1.208,4.988,3.498,4.988h26.412h2.084
					h26.413c2.29,0,3.992-2.427,3.498-4.988L131.493,87.678z"/>
				<path style="opacity:0.3;fill:#FFFFFF;" d="M98.366,85.546h-8.916c-0.446,0-0.807-0.361-0.807-0.807l0,0
					c0-0.446,0.361-0.807,0.807-0.807h8.916c0.446,0,0.807,0.361,0.807,0.807l0,0C99.174,85.184,98.812,85.546,98.366,85.546z"/>
				<path style="opacity:0.3;fill:#FFFFFF;" d="M101.543,85.546h-0.905c-0.446,0-0.807-0.361-0.807-0.807l0,0
					c0-0.446,0.361-0.807,0.807-0.807h0.905c0.446,0,0.807,0.361,0.807,0.807l0,0C102.351,85.184,101.989,85.546,101.543,85.546z"/>
				<path style="fill:#E0E0E0;" d="M142.596,145.247l-5.289-27.422l-51.388,0.315l-5.228,27.107
					c-0.494,2.561,1.208,4.988,3.498,4.988h26.412h2.084h26.413C141.388,150.235,143.09,147.808,142.596,145.247z"/>
				<path style="fill:#F5F5F5;" d="M111.671,116.726c-14.222,0-25.752,0.633-25.752,1.414s11.529,1.414,25.752,1.414
					c14.222,0,25.752-0.633,25.752-1.414S125.893,116.726,111.671,116.726z"/>
			</g>
			<g style="opacity:0.3;">
				<path style="fill:#FFFFFF;" d="M100.064,97.233c1.54,0.79,1.113,2.897,0.982,3.742c-0.937,6.069-1.235,10.553-2.508,16.592
					c-0.393,1.863-1.071,3.747-2.387,5.123c-1.317,1.376-3.645,1.985-5.144,0.81c-1.625-1.273-1.456-3.738-1.132-5.776
					c0.669-4.217,1.339-8.434,2.008-12.65c0.27-1.702,0.551-3.436,1.332-4.972c0.781-1.536,2.16-2.87,3.861-3.147
					C97.075,96.955,99.135,96.757,100.064,97.233z"/>
			</g>
			<path style="opacity:0.3;fill:#FFFFFF;" d="M95.258,136.405c-0.613,2.798-2.683,4.722-4.622,4.297
				c-1.939-0.425-3.014-3.038-2.401-5.836c0.613-2.798,2.683-4.722,4.622-4.297S95.871,133.607,95.258,136.405z"/>
		</g>
		<g>
			<g>
				<path style="fill:#F0F0F0;" d="M220.494,145.838l-11.965-58.16h-21.352h-2.365h-21.351l-11.964,58.16
					c-0.884,4.299,1.963,8.418,5.819,8.418h27.497h2.365h27.497C218.531,154.256,221.378,150.137,220.494,145.838z"/>
				<g>
					<path style="fill:#F0F0F0;" d="M187.178,87.678H162.32c-1.353,0-2.449-1.097-2.449-2.449v0c0-1.353,1.097-2.449,2.449-2.449
						h24.858V87.678z"/>
					<path style="fill:#F0F0F0;" d="M184.813,87.678h24.858c1.353,0,2.449-1.097,2.449-2.449v0c0-1.353-1.097-2.449-2.449-2.449
						h-24.858V87.678z"/>
				</g>
				<path style="fill:#F5F5F5;" d="M205.927,87.678h-39.699l-11.103,57.568c-0.494,2.561,1.208,4.988,3.498,4.988h26.412h2.084
					h26.412c2.29,0,3.992-2.427,3.498-4.988L205.927,87.678z"/>
				<path style="opacity:0.3;fill:#FFFFFF;" d="M172.8,85.546h-8.916c-0.446,0-0.807-0.361-0.807-0.807l0,0
					c0-0.446,0.361-0.807,0.807-0.807h8.916c0.446,0,0.807,0.361,0.807,0.807l0,0C173.607,85.184,173.246,85.546,172.8,85.546z"/>
				<path style="opacity:0.3;fill:#FFFFFF;" d="M175.977,85.546h-0.905c-0.446,0-0.807-0.361-0.807-0.807l0,0
					c0-0.446,0.361-0.807,0.807-0.807h0.905c0.446,0,0.807,0.361,0.807,0.807l0,0C176.784,85.184,176.423,85.546,175.977,85.546z"/>
			</g>
			<g>
				<path style="fill:#FAFAFA;" d="M174.497,97.233c1.54,0.79,1.113,2.897,0.982,3.742c-0.937,6.069-1.235,10.553-2.508,16.592
					c-0.393,1.863-1.071,3.747-2.387,5.123c-1.317,1.376-3.645,1.985-5.144,0.81c-1.625-1.273-1.456-3.738-1.132-5.776
					c0.669-4.217,1.339-8.434,2.008-12.65c0.27-1.702,0.551-3.436,1.332-4.972c0.781-1.536,2.16-2.87,3.861-3.147
					C171.509,96.955,173.569,96.757,174.497,97.233z"/>
			</g>
			<path style="fill:#FAFAFA;" d="M167.606,134.8c-0.613,2.798-2.683,4.722-4.622,4.297c-1.939-0.425-3.014-3.038-2.401-5.837
				c0.613-2.798,2.683-4.722,4.622-4.297C167.145,129.388,168.22,132.001,167.606,134.8z"/>
		</g>
	</g>
</g>
<g id="Background_simple" style="display:none;">
	<g style="display:inline;">
		<path style="fill:#407BFF;" d="M184.218,68.648c-21.564,2.604-42.358,8.149-60.801,16.847
			c-21.737,10.251-43.946,26.221-37.386,47.11c12.11,38.563,70.207,39.266,58.607,65.195c-13.139,29.371-4.328,63.822,54.63,73.403
			C311.25,289.4,446.619,182.927,408.599,124.421C384.929,87.997,298.719,54.82,184.218,68.648z"/>
		<path style="opacity:0.9;fill:#FFFFFF;" d="M184.218,68.648c-21.564,2.604-42.358,8.149-60.801,16.847
			c-21.737,10.251-43.946,26.221-37.386,47.11c12.11,38.563,70.207,39.266,58.607,65.195c-13.139,29.371-4.328,63.822,54.63,73.403
			C311.25,289.4,446.619,182.927,408.599,124.421C384.929,87.997,298.719,54.82,184.218,68.648z"/>
	</g>
</g>
<g id="Shadow">
	<g>
		<g>
			<path style="fill:#F5F5F5;" d="M462.167,453.919c0,3.387-93.516,6.132-208.875,6.132s-208.875-2.746-208.875-6.132
				c0-3.387,93.517-6.132,208.875-6.132S462.167,450.533,462.167,453.919z"/>
		</g>
	</g>
</g>
<g id="Picture">
	<g>
		<rect x="286.586" y="44.536" style="fill:#263238;" width="137.312" height="143.007"/>
		<g>
			<rect x="292.915" y="51.287" style="fill:#FFFFFF;" width="124.654" height="129.506"/>
			<g>
				<path style="fill:none;stroke:#263238;stroke-width:0.75;stroke-miterlimit:10;" d="M366.213,115.794
					c7.5-5.378,15.085-10.818,22.726-16.297"/>
				<path style="fill:none;stroke:#263238;stroke-width:0.75;stroke-miterlimit:10;" d="M365.014,119.707
					c7.796,4.731,15.592,9.463,23.388,14.194"/>
				<path style="fill:none;stroke:#263238;stroke-width:0.75;stroke-miterlimit:10;" d="M355.614,129.595c0,5.13,0,10.259,0,15.389"
					/>
				<circle style="fill:#407BFF;" cx="355.614" cy="146.738" r="7.261"/>
				<circle style="opacity:0.3;" cx="355.614" cy="146.738" r="7.261"/>
				<circle style="fill:#407BFF;" cx="388.585" cy="135.749" r="9.235"/>
				<path style="fill:#407BFF;" d="M393.482,99.525c0,2.806-2.274,5.08-5.08,5.08c-2.806,0-5.08-2.275-5.08-5.08
					c0-2.806,2.275-5.08,5.08-5.08C391.208,94.445,393.482,96.719,393.482,99.525z"/>
				<path style="opacity:0.3;" d="M393.482,99.525c0,2.806-2.274,5.08-5.08,5.08c-2.806,0-5.08-2.275-5.08-5.08
					c0-2.806,2.275-5.08,5.08-5.08C391.208,94.445,393.482,96.719,393.482,99.525z"/>
				<path style="fill:none;stroke:#263238;stroke-width:0.75;stroke-miterlimit:10;" d="M331.039,134.916
					c7.283-5.602,14.566-11.203,21.849-16.805"/>
				<polyline style="fill:none;stroke:#263238;stroke-width:0.75;stroke-miterlimit:10;" points="327.433,95.679 355.742,114.439 
					352.531,83.622 				"/>
				<circle style="fill:#407BFF;" cx="352.531" cy="83.622" r="5.542"/>
				
					<ellipse transform="matrix(0.7071 -0.7071 0.7071 0.7071 0.5031 271.0461)" style="fill:#407BFF;" cx="327.433" cy="134.916" rx="8.132" ry="8.132"/>
				
					<ellipse transform="matrix(0.2308 -0.973 0.973 0.2308 158.016 386.9351)" style="fill:#407BFF;" cx="323.748" cy="93.521" rx="11.084" ry="11.084"/>
				<circle style="fill:#407BFF;" cx="357.26" cy="115.673" r="16.148"/>
				<circle style="opacity:0.3;fill:#FFFFFF;" cx="357.26" cy="115.673" r="16.148"/>
			</g>
		</g>
		<polygon style="opacity:0.4;" points="286.586,187.543 292.915,180.792 417.569,180.792 423.898,187.622 		"/>
		<polygon style="opacity:0.4;" points="286.586,44.536 292.915,51.287 417.569,51.287 423.898,44.536 		"/>
		<polygon style="opacity:0.2;fill:#FFFFFF;" points="423.898,44.536 417.569,51.287 417.569,180.792 423.898,187.622 		"/>
		<polygon style="opacity:0.2;fill:#FFFFFF;" points="286.586,44.536 292.915,51.287 292.915,180.792 286.586,187.622 		"/>
		<g style="opacity:0.2;">
			<path style="fill:#FFFFFF;" d="M328.558,86.073c-0.588-0.818-2.636-2.465-6.813-1.374c-2.498,0.869-3.931,2.014-5.436,4.189
				c-1.505,2.174-1.905,5.732-0.682,8.077c0.384,0.735,0.94,1.406,1.681,1.78c0.741,0.373,1.681,0.406,2.376-0.047
				c1.332-0.869,1.167-2.863,1.933-4.257c0.752-1.369,2.323-2.025,3.761-2.634c1.438-0.609,2.985-1.398,3.548-2.855
				C329.289,88.01,329.146,86.892,328.558,86.073z"/>
		</g>
		<g style="opacity:0.2;">
			<path style="fill:#FFFFFF;" d="M353.715,80.208c-0.234-0.325-1.047-0.979-2.707-0.546c-0.992,0.345-1.562,0.8-2.16,1.664
				c-0.598,0.864-0.757,2.277-0.271,3.209c0.152,0.292,0.374,0.559,0.668,0.707s0.668,0.161,0.944-0.019
				c0.529-0.345,0.464-1.138,0.768-1.691c0.299-0.544,0.923-0.805,1.494-1.047c0.571-0.242,1.186-0.555,1.409-1.134
				C354.006,80.978,353.949,80.533,353.715,80.208z"/>
		</g>
		<g style="opacity:0.2;">
			<path style="fill:#FFFFFF;" d="M390.202,96.135c-0.233-0.325-1.047-0.979-2.707-0.546c-0.992,0.345-1.562,0.8-2.16,1.664
				s-0.757,2.277-0.271,3.209c0.152,0.292,0.374,0.559,0.668,0.707c0.294,0.148,0.668,0.161,0.944-0.019
				c0.529-0.345,0.464-1.138,0.768-1.691c0.299-0.544,0.923-0.804,1.494-1.046c0.571-0.242,1.186-0.556,1.409-1.134
				C390.493,96.905,390.436,96.461,390.202,96.135z"/>
		</g>
		<g style="opacity:0.2;">
			<path style="fill:#FFFFFF;" d="M391.014,130.121c-0.396-0.551-1.776-1.661-4.59-0.926c-1.683,0.586-2.648,1.357-3.662,2.822
				c-1.014,1.465-1.284,3.862-0.46,5.441c0.258,0.495,0.634,0.947,1.133,1.199c0.499,0.251,1.133,0.274,1.601-0.032
				c0.897-0.586,0.786-1.929,1.303-2.868c0.507-0.922,1.565-1.364,2.534-1.775c0.969-0.41,2.011-0.942,2.39-1.923
				C391.506,131.426,391.41,130.672,391.014,130.121z"/>
		</g>
		<g style="opacity:0.2;">
			<path style="fill:#FFFFFF;" d="M358.305,141.861c-0.367-0.512-1.648-1.541-4.259-0.859c-1.561,0.543-2.458,1.259-3.398,2.619
				c-0.941,1.359-1.191,3.584-0.426,5.049c0.24,0.46,0.588,0.879,1.051,1.113s1.051,0.254,1.485-0.03
				c0.833-0.543,0.73-1.79,1.209-2.661c0.47-0.856,1.452-1.266,2.351-1.647c0.899-0.381,1.866-0.874,2.218-1.785
				C358.762,143.072,358.672,142.372,358.305,141.861z"/>
		</g>
		<g style="opacity:0.2;">
			<path style="fill:#FFFFFF;" d="M329.956,130.086c-0.367-0.512-1.648-1.541-4.259-0.859c-1.561,0.543-2.458,1.259-3.398,2.619
				c-0.941,1.359-1.191,3.583-0.426,5.049c0.24,0.46,0.588,0.879,1.051,1.113s1.051,0.254,1.485-0.03
				c0.832-0.543,0.73-1.79,1.209-2.661c0.47-0.856,1.452-1.266,2.351-1.647c0.899-0.381,1.866-0.874,2.218-1.785
				C330.413,131.297,330.324,130.598,329.956,130.086z"/>
		</g>
		<g style="opacity:0.2;">
			<path style="fill:#FFFFFF;" d="M361.355,104.301c-0.761-1.059-3.41-3.19-8.815-1.778c-3.232,1.125-5.086,2.606-7.034,5.42
				c-1.947,2.813-2.465,7.417-0.882,10.451c0.496,0.952,1.217,1.819,2.176,2.302c0.958,0.483,2.176,0.525,3.074-0.061
				c1.723-1.125,1.51-3.705,2.502-5.508c0.973-1.771,3.005-2.62,4.866-3.408c1.861-0.788,3.863-1.809,4.59-3.694
				C362.301,106.808,362.115,105.36,361.355,104.301z"/>
		</g>
	</g>
</g>
<g id="Microscope">
	<g>
		<path style="fill:#263238;" d="M321.879,309.712l-10.376,15.67l9.429,6.473l12.54-15.458
			C333.472,316.398,328.661,307.992,321.879,309.712z"/>
		<path style="fill:#263238;" d="M315.908,288.033l-24.018,8.367l2.956,10.975l23.071-5.043
			C317.918,302.331,321.705,293.771,315.908,288.033z"/>
		<polygon style="fill:#263238;" points="324.545,294.274 327.559,303.935 338.863,312.611 352.022,313.596 386.956,267.068 
			389.797,263.261 386.918,254.566 413.949,217.951 397.603,205.661 371.286,243.243 361.47,244.094 359.132,247.262 		"/>
		<polygon style="opacity:0.5;fill:#FFFFFF;enable-background:new    ;" points="324.545,294.274 327.559,303.935 338.863,312.611 
			352.022,313.596 386.956,267.068 389.797,263.261 386.918,254.566 413.949,217.951 397.603,205.661 371.286,243.243 
			361.47,244.094 359.132,247.262 		"/>
		<polygon style="fill:#263238;" points="359.132,247.262 386.956,267.068 389.797,263.261 386.918,254.566 413.949,217.951 
			397.603,205.661 371.286,243.243 361.47,244.094 		"/>
		<polygon style="fill:#263238;" points="329.26,311.78 320.043,310.311 315.58,303.857 319.367,290.371 		"/>
		<polygon style="opacity:0.1;fill:#FFFFFF;enable-background:new    ;" points="329.26,311.78 320.043,310.311 315.58,303.857 
			319.367,290.371 		"/>
		<polygon style="fill:#263238;" points="341.201,315.142 320.623,280.033 312.411,284.941 333.182,321.247 		"/>
		<polygon style="opacity:0.2;fill:#FFFFFF;enable-background:new    ;" points="341.201,315.142 320.623,280.033 312.411,284.941 
			333.182,321.247 		"/>
		<polygon style="fill:#263238;" points="317.763,424.255 266.752,394.982 263.835,400.43 313.551,429.24 		"/>
		<polygon style="opacity:0.1;fill:#FFFFFF;enable-background:new    ;" points="317.763,424.255 266.752,394.982 263.835,400.43 
			313.551,429.24 		"/>
		<polygon style="fill:#263238;" points="292.586,352.975 287.504,362.23 311.966,375.659 318.497,366.655 		"/>
		<polygon style="opacity:0.05;fill:#FFFFFF;enable-background:new    ;" points="292.586,352.975 287.504,362.23 311.966,375.659 
			318.497,366.655 		"/>
		<polygon style="fill:#263238;" points="351.191,372.259 343.674,384.953 259.738,338.464 268.53,325.827 		"/>
		<polygon style="fill:#263238;" points="317.087,376.393 286.055,359.351 282.094,366.52 312.449,383.465 		"/>
		<polygon style="opacity:0.2;fill:#FFFFFF;enable-background:new    ;" points="351.191,372.259 343.674,384.953 259.738,338.464 
			268.53,325.827 		"/>
		<polygon style="opacity:0.1;fill:#FFFFFF;enable-background:new    ;" points="317.087,376.393 286.055,359.351 282.094,366.52 
			312.449,383.465 		"/>
		<path style="fill:#263238;" d="M397.989,295.8l-27.206-12.927l-26.008,48.808l23.882,13.854l0.773-0.406
			c4.192-2.253,9.253-2.173,13.371,0.212l4.502,2.608c2.86,1.65,4.218,5.045,3.285,8.212l0,0
			c-4.746,16.007-14.248,30.193-27.245,40.673l0,0c-1.981,1.622-4.77,1.815-6.956,0.483l-6.705-4.444
			c-3.122-2.109-5.025-5.604-5.101-9.371l0,0l-36.191-19.825l-2.57,4.695l17.293,9.796v21.622l-15.11,30.626l15.033,8.579
			c0,0,57.001-10.376,77.946-53.658S397.989,295.8,397.989,295.8z"/>
		<path style="opacity:0.7;fill:#FFFFFF;enable-background:new    ;" d="M397.989,295.8l-27.206-12.927l-26.008,48.808
			l23.882,13.854l0.773-0.406c4.192-2.253,9.253-2.173,13.371,0.212l4.502,2.608c2.86,1.65,4.218,5.045,3.285,8.212l0,0
			c-4.746,16.007-14.248,30.193-27.245,40.673l0,0c-1.981,1.622-4.77,1.815-6.956,0.483l-6.705-4.444
			c-3.122-2.109-5.025-5.604-5.101-9.371l0,0l-36.191-19.825l-2.57,4.695l17.293,9.796v21.622l-15.11,30.626l15.033,8.579
			c0,0,57.001-10.376,77.946-53.658S397.989,295.8,397.989,295.8z"/>
		<polygon style="opacity:0.2;fill:#FFFFFF;enable-background:new    ;" points="360.281,340.677 407.125,323.276 407.782,326.686 
			364.3,343.008 		"/>
		<path style="opacity:0.2;fill:#FFFFFF;enable-background:new    ;" d="M344.776,331.682l57.963-24.307
			c1.429,3.931,2.602,7.987,3.549,12.154l-48.589,19.65L344.776,331.682z"/>
		<path style="fill:#263238;" d="M357.219,326.284c-0.636,4.393,2.41,8.471,6.803,9.107c4.393,0.636,8.471-2.41,9.107-6.803
			c0.635-4.388-2.403-8.462-6.79-9.105C361.945,318.85,357.866,321.892,357.219,326.284z"/>
		<polygon style="fill:#263238;" points="297.571,409.86 291.581,418.864 261.265,401.667 266.81,392.856 		"/>
		<path style="fill:#263238;" d="M355.499,292.535c-1.107,7.506,4.081,14.488,11.588,15.595c7.506,1.107,14.488-4.081,15.595-11.587
			c1.107-7.506-4.081-14.488-11.587-15.595c-0.014-0.002-0.027-0.004-0.041-0.006C363.56,279.859,356.604,285.044,355.499,292.535z"
			/>
		<polygon style="opacity:0.2;fill:#FFFFFF;enable-background:new    ;" points="297.571,409.86 291.581,418.864 261.265,401.667 
			266.81,392.856 		"/>
		<path style="opacity:0.5;fill:#FFFFFF;enable-background:new    ;" d="M362.301,293.559c-0.551,3.748,2.041,7.233,5.789,7.784
			c3.748,0.551,7.233-2.041,7.784-5.789c0.551-3.748-2.041-7.233-5.789-7.784c-0.018-0.003-0.037-0.005-0.055-0.008
			C366.302,287.255,362.859,289.838,362.301,293.559z"/>
		<path style="fill:#263238;" d="M416.019,448.582H253.292l0,0c0-4.813,7.692-8.714,17.181-8.714h136.832
			C412.117,439.867,416.019,443.769,416.019,448.582L416.019,448.582z"/>
		<path style="fill:#263238;" d="M376.503,448.601l-23.071-40.132c-2.535-4.406-7.328-7.019-12.405-6.763l0,0
			c-6.978,0.364-12.531,5.983-12.811,12.965l-1.353,33.891L376.503,448.601z"/>
		<path style="opacity:0.5;fill:#FFFFFF;enable-background:new    ;" d="M376.503,448.601l-23.071-40.132
			c-2.535-4.406-7.328-7.019-12.405-6.763l0,0c-6.978,0.364-12.531,5.983-12.811,12.965l-1.353,33.891L376.503,448.601z"/>
		<path style="fill:#263238;" d="M334.38,416.526c0,4.45,3.608,8.057,8.057,8.057c4.45,0,8.057-3.608,8.057-8.058
			c0-4.45-3.607-8.057-8.057-8.057c-0.006,0-0.013,0-0.019,0C337.976,408.479,334.38,412.083,334.38,416.526z"/>
		
			<rect x="294.557" y="310.675" transform="matrix(0.4842 -0.875 0.875 0.4842 -141.5537 435.9909)" style="fill:#407BFF;" width="8.908" height="54.759"/>
	</g>
</g>
<g id="Chemistry_Lab">
	<g>
		<g>
			<g>
				<path style="fill:#407BFF;" d="M180.978,236.705c1.484-6.245,6.526-11.299,12.694-13.013c6.122-1.701,12.589,0.439,17.065,4.805
					c3.99,3.892,6.071,9.043,6.352,14.559c0.156,3.06,0.206,6.126,0.251,9.189c0.136,9.226,0.115,18.455,0.077,27.682
					c-0.039,9.495-0.117,18.989-0.217,28.483c-0.052,4.957-0.318,9.958-0.178,14.913c0.002,0.073-0.002,0.147-0.003,0.22
					c-0.027,1.931,2.973,1.932,3,0c0.062-4.4,0.112-8.801,0.16-13.201c0.105-9.674,0.188-19.348,0.232-29.022
					c0.044-9.622,0.071-19.246-0.068-28.867c-0.046-3.194-0.095-6.391-0.264-9.581c-0.315-5.953-2.491-11.531-6.622-15.887
					c-4.477-4.721-11.059-7.552-17.603-6.759c-6.696,0.811-12.887,5.064-16.03,11.048c-0.77,1.466-1.357,3.025-1.739,4.635
					C177.639,237.785,180.531,238.586,180.978,236.705L180.978,236.705z"/>
			</g>
		</g>
		<g>
			<g>
				<path style="fill:#FFFFFF;" d="M179.893,236.406c1.572-6.618,6.949-11.984,13.48-13.799c6.507-1.808,13.4,0.452,18.159,5.094
					c4.206,4.102,6.386,9.544,6.682,15.355c0.156,3.06,0.206,6.126,0.251,9.189c0.136,9.226,0.115,18.455,0.077,27.682
					c-0.039,9.495-0.117,18.989-0.217,28.483c-0.035,3.338-0.073,6.676-0.114,10.014c-0.02,1.595-0.224,3.309-0.063,4.899
					c0.007,0.072-0.002,0.148-0.003,0.22c-0.007,0.483,0.743,0.483,0.75,0c0.062-4.4,0.112-8.801,0.16-13.201
					c0.105-9.674,0.188-19.348,0.232-29.022c0.044-9.622,0.071-19.246-0.068-28.867c-0.046-3.194-0.095-6.391-0.264-9.581
					c-0.299-5.65-2.371-10.957-6.293-15.092c-4.289-4.522-10.54-7.205-16.808-6.43c-6.305,0.78-12.109,4.875-15.058,10.491
					c-0.726,1.383-1.265,2.847-1.626,4.366C179.058,236.676,179.781,236.876,179.893,236.406L179.893,236.406z"/>
			</g>
		</g>
	</g>
	<g>
		<g>
			<path style="fill:#407BFF;" d="M459.906,440.185l-13.867-67.407h-24.746h-2.742h-24.746l-13.867,67.407
				c-1.025,4.982,2.275,9.756,6.744,9.756h31.869h2.742h31.869C457.631,449.941,460.931,445.167,459.906,440.185z"/>
			<g>
				<path style="fill:#407BFF;" d="M421.293,372.778h-28.811c-1.568,0-2.839-1.271-2.839-2.839l0,0c0-1.568,1.271-2.839,2.839-2.839
					h28.811V372.778z"/>
				<path style="fill:#407BFF;" d="M418.551,372.778h28.811c1.568,0,2.839-1.271,2.839-2.839l0,0c0-1.568-1.271-2.839-2.839-2.839
					h-28.811V372.778z"/>
			</g>
			<g style="opacity:0.3;">
				<path style="fill:#FFFFFF;" d="M421.293,372.778h-28.811c-1.568,0-2.839-1.271-2.839-2.839l0,0c0-1.568,1.271-2.839,2.839-2.839
					h28.811V372.778z"/>
				<path style="fill:#FFFFFF;" d="M418.551,372.778h28.811c1.568,0,2.839-1.271,2.839-2.839l0,0c0-1.568-1.271-2.839-2.839-2.839
					h-28.811V372.778z"/>
			</g>
			<path style="opacity:0.3;fill:#FFFFFF;" d="M459.906,440.185l-13.867-67.407h-24.746h-2.742h-24.746l-13.867,67.407
				c-1.025,4.982,2.275,9.756,6.744,9.756h31.869h2.742h31.869C457.631,449.941,460.931,445.167,459.906,440.185z"/>
			<path style="opacity:0.3;fill:#FFFFFF;" d="M443.023,372.778h-46.011l-12.868,66.722c-0.573,2.968,1.4,5.781,4.054,5.781h30.612
				h2.415h30.612c2.654,0,4.626-2.813,4.054-5.781L443.023,372.778z"/>
			<polygon style="opacity:0.3;" points="393.805,372.778 393.36,374.94 446.484,374.94 446.039,372.778 			"/>
			<path style="opacity:0.3;fill:#FFFFFF;" d="M404.629,370.306h-10.333c-0.517,0-0.936-0.419-0.936-0.936l0,0
				c0-0.517,0.419-0.936,0.936-0.936h10.333c0.517,0,0.936,0.419,0.936,0.936l0,0C405.564,369.887,405.146,370.306,404.629,370.306z
				"/>
			<path style="opacity:0.3;fill:#FFFFFF;" d="M408.311,370.306h-1.049c-0.517,0-0.936-0.419-0.936-0.936l0,0
				c0-0.517,0.419-0.936,0.936-0.936h1.049c0.517,0,0.936,0.419,0.936,0.936l0,0C409.247,369.887,408.828,370.306,408.311,370.306z"
				/>
			<path style="fill:#407BFF;" d="M455.891,439.5l-6.129-31.782l-59.559,0.365l-6.059,31.417c-0.573,2.968,1.4,5.781,4.054,5.781
				h30.612h2.415h30.612C454.491,445.28,456.463,442.467,455.891,439.5z"/>
			<path style="fill:#407BFF;" d="M420.049,406.444c-16.484,0-29.846,0.734-29.846,1.639c0,0.905,13.363,1.638,29.846,1.638
				c16.484,0,29.846-0.733,29.846-1.638C449.895,407.177,436.533,406.444,420.049,406.444z"/>
			<path style="opacity:0.3;" d="M420.049,406.444c-16.484,0-29.846,0.734-29.846,1.639c0,0.905,13.363,1.638,29.846,1.638
				c16.484,0,29.846-0.733,29.846-1.638C449.895,407.177,436.533,406.444,420.049,406.444z"/>
		</g>
		<g style="opacity:0.3;">
			<path style="fill:#FFFFFF;" d="M406.596,383.852c1.784,0.916,1.29,3.357,1.139,4.337c-1.086,7.034-1.431,12.231-2.907,19.231
				c-0.455,2.16-1.241,4.343-2.767,5.938c-1.526,1.594-4.225,2.3-5.962,0.939c-1.883-1.475-1.688-4.332-1.313-6.695
				c0.776-4.887,1.552-9.775,2.328-14.662c0.313-1.973,0.638-3.983,1.544-5.763s2.504-3.326,4.475-3.647
				C403.133,383.53,405.52,383.299,406.596,383.852z"/>
		</g>
		<path style="opacity:0.3;fill:#FFFFFF;" d="M401.027,429.252c-0.711,3.243-3.109,5.473-5.357,4.98
			c-2.248-0.493-3.493-3.521-2.783-6.765c0.711-3.243,3.109-5.473,5.357-4.98C400.492,422.98,401.738,426.009,401.027,429.252z"/>
		<path style="opacity:0.5;fill:#FFFFFF;" d="M451.801,443.61h-30.612h-2.415h-30.612c-2.082,0-3.738-1.733-4.082-3.912
			c-0.449,2.893,1.487,5.582,4.082,5.582h30.612h2.415h30.612c2.594,0,4.531-2.689,4.082-5.582
			C455.539,441.877,453.883,443.61,451.801,443.61z"/>
	</g>
	<g>
		<g>
			<g>
				<path style="fill:#407BFF;" d="M75.342,312.92c-0.72-8.911-1.441-17.822-2.161-26.733c-0.674-8.333-1.671-16.71-1.932-25.068
					c-0.203-6.491,0.863-14.189,7.233-17.536c2.613-1.372,6.119-1.892,8.616,0.012c2.469,1.883,3.011,5.451,3.369,8.327
					c0.371,2.974,0.62,6.692-1.81,8.91c-2.173,1.983-5.495,1.75-8.069,0.789c-6.504-2.428-8.321-9.931-6.255-16.032
					c2.349-6.933,8.971-11.696,15.09-15.115c6.876-3.842,14.4-6.462,22.14-7.889c3.65-0.673,7.416-1.19,11.135-0.954
					c3.185,0.202,6.746,1.122,8.649,3.907c1.906,2.79,1.864,6.411,1.802,9.651c-0.084,4.397-0.489,8.788-1.236,13.122
					c-0.373,2.162-0.829,4.306-1.352,6.436c-0.46,1.875,2.432,2.674,2.893,0.798c1.173-4.777,1.98-9.641,2.395-14.544
					c0.356-4.212,0.747-8.77-0.221-12.932c-0.876-3.768-3.302-6.699-6.883-8.172c-3.583-1.474-7.658-1.499-11.458-1.13
					c-8.909,0.865-17.657,3.314-25.715,7.21c-7.298,3.529-14.979,8.446-18.855,15.834c-3.477,6.627-3.118,15.779,3.211,20.611
					c5.44,4.152,14.865,4.268,17.23-3.37c1.053-3.402,0.471-7.386-0.28-10.795c-0.781-3.55-2.623-6.876-6.159-8.259
					c-3.388-1.326-7.332-0.467-10.374,1.344c-3.269,1.946-5.515,5.152-6.765,8.7c-1.285,3.648-1.462,7.632-1.319,11.463
					c0.173,4.603,0.668,9.202,1.039,13.791c0.814,10.066,1.628,20.132,2.442,30.198c0.2,2.475,0.4,4.951,0.6,7.426
					C72.496,314.831,75.498,314.848,75.342,312.92L75.342,312.92z"/>
			</g>
		</g>
		<g>
			<g>
				<path style="fill:#FFFFFF;" d="M74.217,312.92c-0.72-8.911-1.441-17.822-2.161-26.733c-0.674-8.333-1.671-16.71-1.932-25.068
					c-0.216-6.89,1.057-14.97,7.79-18.507c2.98-1.566,6.886-2.088,9.752,0.012c2.869,2.102,3.521,6,3.927,9.298
					c0.406,3.301,0.526,7.258-2.14,9.705c-2.468,2.265-6.192,2.184-9.164,1.078c-7.074-2.631-9.319-10.688-7.04-17.416
					c2.449-7.23,9.21-12.213,15.607-15.787c6.957-3.887,14.577-6.558,22.409-8.003c6.381-1.177,16.73-2.947,21.054,3.47
					c2.004,2.973,2.022,6.768,1.956,10.219c-0.086,4.498-0.512,8.988-1.277,13.421c-0.373,2.162-0.829,4.306-1.352,6.437
					c-0.115,0.469,0.608,0.669,0.723,0.199c1.149-4.681,1.949-9.441,2.355-14.245c0.347-4.103,0.763-8.576-0.181-12.633
					c-0.797-3.427-2.952-6.11-6.232-7.443c-3.452-1.404-7.374-1.388-11.025-1.034c-8.698,0.845-17.28,3.253-25.147,7.057
					c-7.13,3.447-14.662,8.207-18.451,15.43c-3.187,6.074-2.968,14.57,2.808,19.072c4.782,3.727,13.436,4.219,15.577-2.698
					c0.994-3.212,0.429-6.977-0.28-10.197c-0.693-3.151-2.228-6.199-5.373-7.474c-3.1-1.256-6.724-0.427-9.507,1.23
					c-3.01,1.792-5.096,4.758-6.248,8.028c-1.255,3.562-1.419,7.423-1.278,11.163c0.173,4.603,0.668,9.202,1.039,13.791
					c0.814,10.066,1.628,20.132,2.442,30.198c0.2,2.475,0.4,4.951,0.6,7.426C73.505,313.398,74.256,313.402,74.217,312.92
					L74.217,312.92z"/>
			</g>
		</g>
	</g>
	<g>
		<g>
			<g>
				<g>
					<path style="fill:#407BFF;" d="M84.456,344.503l1.028-33.399l-10.276-2.055l-10.276,2.055l1.028,33.399
						c0,0-21.324,8.735-20.039,30.316c0.969,16.278,11.218,22.736,22.492,24.88c4.483,0.852,9.109,0.852,13.592,0
						c11.274-2.144,21.523-8.603,22.492-24.88C105.78,353.237,84.456,344.503,84.456,344.503z"/>
					<path style="opacity:0.3;fill:#FFFFFF;" d="M84.456,344.503l1.028-33.399l-10.276-2.055l-10.276,2.055l1.028,33.399
						c0,0-21.324,8.735-20.039,30.316c0.969,16.278,11.218,22.736,22.492,24.88c4.483,0.852,9.109,0.852,13.592,0
						c11.274-2.144,21.523-8.603,22.492-24.88C105.78,353.237,84.456,344.503,84.456,344.503z"/>
					<path style="opacity:0.3;fill:#FFFFFF;" d="M82.639,345.739l0.452-33.149l-8.203-0.425l-7.898,0.383l0.839,33.304
						c0,0-20.606,8.634-19.43,28.387c0.937,15.748,11.365,21.455,22.358,23.07c2.947,0.433,5.95,0.433,8.897,0
						c10.994-1.616,21.421-7.323,22.358-23.07C103.19,354.487,82.639,345.739,82.639,345.739z"/>
					<path style="fill:#407BFF;" d="M85.55,312.59H64.228c-1.67,0-3.023-1.354-3.023-3.023l0,0c0-1.67,1.354-3.023,3.023-3.023
						H85.55c1.67,0,3.023,1.354,3.023,3.023l0,0C88.573,311.236,87.219,312.59,85.55,312.59z"/>
					<path style="opacity:0.3;fill:#FFFFFF;" d="M85.55,312.59H64.228c-1.67,0-3.023-1.354-3.023-3.023l0,0
						c0-1.67,1.354-3.023,3.023-3.023H85.55c1.67,0,3.023,1.354,3.023,3.023l0,0C88.573,311.236,87.219,312.59,85.55,312.59z"/>
					<polygon style="opacity:0.3;" points="64.977,312.59 65.033,314.417 85.382,314.417 85.438,312.59 					"/>
					<path style="opacity:0.3;fill:#FFFFFF;" d="M73.778,309.659h-7.779c-0.434,0-0.786-0.352-0.786-0.786l0,0
						c0-0.434,0.352-0.786,0.786-0.786h7.779c0.434,0,0.786,0.352,0.786,0.786l0,0C74.564,309.307,74.212,309.659,73.778,309.659z"
						/>
					<path style="fill:#407BFF;" d="M48.401,374.239c0.937,15.748,11.365,21.455,22.358,23.07c2.947,0.433,5.95,0.433,8.897,0
						c10.994-1.616,21.421-7.323,22.358-23.07H48.401z"/>
					<path style="opacity:0.5;fill:#FFFFFF;" d="M79.656,395.755c-2.947,0.433-5.95,0.433-8.897,0
						c-10.623-1.561-20.716-6.945-22.23-21.516h-0.128c0.937,15.748,11.365,21.455,22.358,23.07c2.947,0.433,5.95,0.433,8.897,0
						c10.994-1.616,21.421-7.323,22.358-23.07h-0.129C100.372,388.81,90.28,394.194,79.656,395.755z"/>
					<path style="fill:#407BFF;" d="M101.685,374.239c0,0.861-11.939,1.56-26.666,1.56c-14.727,0-26.666-0.698-26.666-1.56
						c0-0.861,11.939-1.56,26.666-1.56C89.746,372.68,101.685,373.378,101.685,374.239z"/>
					<path style="opacity:0.3;" d="M101.685,374.239c0,0.861-11.939,1.56-26.666,1.56c-14.727,0-26.666-0.698-26.666-1.56
						c0-0.861,11.939-1.56,26.666-1.56C89.746,372.68,101.685,373.378,101.685,374.239z"/>
				</g>
				<g style="opacity:0.3;">
					<path style="fill:#FFFFFF;" d="M66.639,352.535c1.256,0.494,2.232,1.618,2.312,2.965c0.08,1.347-0.508,2.652-1.265,3.77
						c-0.756,1.118-1.688,2.11-2.43,3.237c-0.883,1.342-1.48,2.849-2.22,4.275c-0.74,1.426-1.665,2.816-3.01,3.696
						c-1.345,0.879-3.188,1.145-4.557,0.304c-1.667-1.024-2.114-3.259-2.003-5.213c0.329-5.814,4.472-11.228,9.999-13.065
						C63.466,352.504,65.236,351.984,66.639,352.535z"/>
				</g>
			</g>
			<g>
				<g>
					<path style="fill:#FFFFFF;" d="M83.901,392.215c6.638-2.196,12.038-7.5,14.363-14.092
						C96.97,385.119,90.919,391.051,83.901,392.215L83.901,392.215z"/>
				</g>
				<g>
					<g>
						<path style="fill:#FFFFFF;" d="M99.175,375.802c1.448,0,1.45-2.25,0-2.25C97.727,373.552,97.725,375.802,99.175,375.802
							L99.175,375.802z"/>
					</g>
				</g>
			</g>
		</g>
		<rect x="41.745" y="385.855" style="fill:#263238;" width="69.514" height="5.04"/>
		<rect x="45.671" y="389.745" style="fill:#263238;" width="5.362" height="58.644"/>
		<rect x="100.612" y="389.745" style="fill:#263238;" width="5.362" height="58.644"/>
		<g>
			<path style="fill:#263238;" d="M89.489,448.256H60.023v-5.262c0-1.535,1.244-2.779,2.779-2.779H86.71
				c1.535,0,2.779,1.244,2.779,2.779V448.256z"/>
			<g>
				<path style="fill:#407BFF;" d="M75.285,414.98c-0.915-0.379-2.218-0.502-2.662,0.382c-0.467,0.93,0.498,1.898,0.86,2.873
					c0.566,1.523-0.425,3.196-1.635,4.28c-1.21,1.084-2.698,1.901-3.613,3.243c-1.253,1.837-1.132,4.425,0.069,6.295
					s3.53,3.647,5.737,3.918c5.863-0.762,8.044-6.057,8.122-10.498C82.241,421.033,79.389,416.681,75.285,414.98z"/>
			</g>
			<g style="opacity:0.3;">
				<path d="M75.922,424.387c-0.462-0.359-1.156-0.143-1.355,0.407c-0.359,0.988-1.123,2.226-1.528,2.589
					c-0.593,0.532-1.323,0.932-1.772,1.591c-0.614,0.901-0.555,2.17,0.034,3.088c0.56,0.872,1.62,1.702,2.653,1.896
					c0.107,0.02,0.219,0.018,0.326,0.001c2.751-0.45,3.781-2.989,3.818-5.125C78.128,427.121,77.269,425.435,75.922,424.387z"/>
			</g>
			<rect x="70.083" y="437.43" style="fill:#263238;" width="9.347" height="3.331"/>
			<rect x="73.173" y="433.972" style="fill:#263238;" width="1.865" height="3.73"/>
		</g>
	</g>
	<g>
		<polygon style="fill:#407BFF;" points="240.874,441.415 240.874,313.47 221.092,313.47 210.665,313.47 205.789,313.47 
			210.665,321.666 210.665,441.415 205.049,448.389 206.018,448.389 246.334,448.389 		"/>
		<polygon style="opacity:0.3;fill:#FFFFFF;" points="240.874,441.415 240.874,313.47 221.092,313.47 210.665,313.47 
			205.789,313.47 210.665,321.666 210.665,441.415 205.049,448.389 206.018,448.389 246.334,448.389 		"/>
		<path style="opacity:0.3;fill:#FFFFFF;" d="M225.681,440.474L225.681,440.474c-6.846,0-12.396-5.55-12.396-12.395V313.47h24.791
			v114.609C238.076,434.924,232.527,440.474,225.681,440.474z"/>
		<path style="fill:#407BFF;" d="M242.423,314.378h-37.466c-0.856,0-1.549-0.694-1.549-1.549l0,0c0-0.856,0.694-1.549,1.549-1.549
			h37.466c0.856,0,1.549,0.694,1.549,1.549l0,0C243.973,313.685,243.279,314.378,242.423,314.378z"/>
		<path style="opacity:0.3;fill:#FFFFFF;" d="M242.423,314.378h-37.466c-0.856,0-1.549-0.694-1.549-1.549l0,0
			c0-0.856,0.694-1.549,1.549-1.549h37.466c0.856,0,1.549,0.694,1.549,1.549l0,0C243.973,313.685,243.279,314.378,242.423,314.378z"
			/>
		<polygon style="opacity:0.3;" points="206.33,314.378 207.313,316.031 240.874,316.031 240.874,314.378 		"/>
		<path style="fill:#407BFF;" d="M225.681,440.474L225.681,440.474c-6.846,0-12.396-5.55-12.396-12.395v-47.493h24.791v47.493
			C238.076,434.924,232.527,440.474,225.681,440.474z"/>
		<ellipse style="fill:#407BFF;" cx="225.681" cy="380.585" rx="12.396" ry="1.4"/>
		<ellipse style="opacity:0.3;" cx="225.681" cy="380.585" rx="12.396" ry="1.4"/>
		<path style="opacity:0.5;fill:#FFFFFF;" d="M225.691,438.24L225.691,438.24c-6.846,0-12.396-5.55-12.396-12.395v2.233
			c0,6.846,5.55,12.395,12.396,12.395l0,0c6.846,0,12.395-5.55,12.395-12.395v-2.233C238.087,432.691,232.537,438.24,225.691,438.24
			z"/>
		<g style="opacity:0.5;">
			<path style="fill:#FFFFFF;" d="M216.869,356.876c-0.105,11.317-0.211,22.634-0.317,33.951c-0.016,1.682-0.022,3.425,0.511,4.961
				c0.533,1.536,1.766,2.805,3.058,2.561c1.009-0.191,1.815-1.255,2.221-2.461c0.407-1.205,0.483-2.546,0.55-3.857
				c0.484-9.526,0.34-19.017,0.328-28.564c-0.003-2.936-0.296-5.773-0.742-8.653c-0.302-1.953-1.693-3.24-3.202-3.125
				C217.767,351.804,216.84,353.409,216.869,356.876"/>
		</g>
		<path style="opacity:0.5;fill:#FFFFFF;" d="M221.949,344.044c0,2.197-1.209,3.978-2.701,3.978c-1.492,0-2.701-1.781-2.701-3.978
			c0-2.197,1.209-3.978,2.701-3.978C220.74,340.066,221.949,341.847,221.949,344.044z"/>
		<g>
			<path style="fill:#263238;" d="M231.418,334.012c3.15-0.34,6.306-0.343,9.456,0C237.724,334.355,234.569,334.352,231.418,334.012
				L231.418,334.012z"/>
		</g>
		<g>
			<path style="fill:#263238;" d="M231.418,355.875c3.15-0.34,6.306-0.343,9.456,0C237.724,356.218,234.569,356.215,231.418,355.875
				L231.418,355.875z"/>
		</g>
		<g>
			<path style="fill:#263238;" d="M236.897,345.515c1.322-0.34,2.655-0.343,3.977,0
				C239.552,345.858,238.219,345.855,236.897,345.515L236.897,345.515z"/>
		</g>
		<g>
			<path style="fill:#263238;" d="M231.418,375.801c3.15-0.34,6.306-0.343,9.456,0C237.724,376.145,234.569,376.141,231.418,375.801
				L231.418,375.801z"/>
		</g>
		<g>
			<path style="fill:#263238;" d="M236.897,365.441c1.322-0.34,2.655-0.343,3.977,0
				C239.552,365.784,238.219,365.781,236.897,365.441L236.897,365.441z"/>
		</g>
		<g>
			<path style="fill:#263238;" d="M231.418,395.727c3.15-0.34,6.306-0.343,9.456,0C237.724,396.071,234.569,396.068,231.418,395.727
				L231.418,395.727z"/>
		</g>
		<g>
			<path style="fill:#263238;" d="M236.897,385.367c1.322-0.34,2.655-0.343,3.977,0
				C239.552,385.711,238.219,385.707,236.897,385.367L236.897,385.367z"/>
		</g>
		<g>
			<path style="fill:#263238;" d="M231.418,415.653c3.15-0.34,6.306-0.343,9.456,0C237.724,415.997,234.569,415.994,231.418,415.653
				L231.418,415.653z"/>
		</g>
		<g>
			<path style="fill:#263238;" d="M236.897,405.293c1.322-0.34,2.655-0.343,3.977,0
				C239.552,405.637,238.219,405.634,236.897,405.293L236.897,405.293z"/>
		</g>
	</g>
	<g>
		<g>
			<g>
				<path style="fill:#407BFF;" d="M132.369,338.321L132.369,338.321c-5.879,0-10.645-4.766-10.645-10.645v-85.303
					c0-2.331,1.89-4.221,4.221-4.221h12.848c2.331,0,4.221,1.89,4.221,4.221v85.303
					C143.014,333.555,138.248,338.321,132.369,338.321z"/>
				<path style="opacity:0.3;fill:#FFFFFF;" d="M132.369,338.321L132.369,338.321c-5.879,0-10.645-4.766-10.645-10.645v-85.303
					c0-2.331,1.89-4.221,4.221-4.221h12.848c2.331,0,4.221,1.89,4.221,4.221v85.303
					C143.014,333.555,138.248,338.321,132.369,338.321z"/>
				<path style="opacity:0.3;fill:#FFFFFF;" d="M123.539,237.357v89.431c0,4.928,3.995,8.923,8.923,8.923
					c4.928,0,8.923-3.995,8.923-8.923v-89.431H123.539z"/>
				<path style="fill:#407BFF;" d="M123.539,289.686v37.102c0,4.928,3.995,8.923,8.923,8.923c4.928,0,8.923-3.995,8.923-8.923
					v-37.102H123.539z"/>
				<path style="opacity:0.5;fill:#FFFFFF;" d="M132.462,334.408c-5.663-0.107-8.923-4.737-8.923-9.665v2.045
					c0,4.928,3.995,8.923,8.923,8.923c4.928,0,8.923-3.995,8.923-8.923v-2.045C141.385,329.671,137.97,334.513,132.462,334.408z"/>
				<path style="fill:#407BFF;" d="M143.226,241.855h-21.713c-1.7,0-3.079-1.378-3.079-3.079l0,0c0-1.7,1.378-3.079,3.079-3.079
					h21.713c1.7,0,3.079,1.378,3.079,3.079l0,0C146.304,240.476,144.926,241.855,143.226,241.855z"/>
				<path style="opacity:0.3;fill:#FFFFFF;" d="M143.226,241.855h-21.713c-1.7,0-3.079-1.378-3.079-3.079l0,0
					c0-1.7,1.378-3.079,3.079-3.079h21.713c1.7,0,3.079,1.378,3.079,3.079l0,0C146.304,240.476,144.926,241.855,143.226,241.855z"/>
				<rect x="121.724" y="241.855" style="opacity:0.3;" width="21.29" height="1.188"/>
				<path style="fill:#407BFF;" d="M141.385,289.686c0,0.677-3.995,1.227-8.923,1.227c-4.928,0-8.923-0.549-8.923-1.227
					c0-0.677,3.995-1.227,8.923-1.227C137.39,288.459,141.385,289.008,141.385,289.686z"/>
				<path style="opacity:0.3;" d="M141.385,289.686c0,0.677-3.995,1.227-8.923,1.227c-4.928,0-8.923-0.549-8.923-1.227
					c0-0.677,3.995-1.227,8.923-1.227C137.39,288.459,141.385,289.008,141.385,289.686z"/>
				<path style="opacity:0.3;fill:#FFFFFF;" d="M127.979,307.121L127.979,307.121c-1.008,0-1.825-0.817-1.825-1.825v-21.515
					c0-0.876,0.623-1.628,1.483-1.792v0c1.124-0.214,2.166,0.648,2.166,1.792v21.515
					C129.804,306.304,128.987,307.121,127.979,307.121z"/>
				<circle style="opacity:0.3;fill:#FFFFFF;" cx="128.142" cy="313.267" r="1.987"/>
				<g>
					<path style="fill:#FFFFFF;" d="M138.899,299.874c0.155,6.774,0.156,13.548,0,20.322
						C138.743,313.422,138.744,306.648,138.899,299.874L138.899,299.874z"/>
				</g>
			</g>
			<rect x="118.434" y="273.268" style="fill:#263238;" width="28.874" height="5.594"/>
		</g>
		<g>
			<g>
				<path style="fill:#407BFF;" d="M177.065,338.321L177.065,338.321c-5.879,0-10.645-4.766-10.645-10.645v-85.303
					c0-2.331,1.89-4.221,4.221-4.221h12.848c2.331,0,4.221,1.89,4.221,4.221v85.303C187.71,333.555,182.944,338.321,177.065,338.321
					z"/>
				<path style="opacity:0.3;fill:#FFFFFF;" d="M177.065,338.321L177.065,338.321c-5.879,0-10.645-4.766-10.645-10.645v-85.303
					c0-2.331,1.89-4.221,4.221-4.221h12.848c2.331,0,4.221,1.89,4.221,4.221v85.303C187.71,333.555,182.944,338.321,177.065,338.321
					z"/>
				<path style="opacity:0.3;fill:#FFFFFF;" d="M168.235,237.357v89.431c0,4.928,3.995,8.923,8.923,8.923
					c4.928,0,8.923-3.995,8.923-8.923v-89.431H168.235z"/>
				<path style="fill:#407BFF;" d="M168.235,289.686v37.102c0,4.928,3.995,8.923,8.923,8.923c4.928,0,8.923-3.995,8.923-8.923
					v-37.102H168.235z"/>
				<path style="opacity:0.5;fill:#FFFFFF;" d="M177.158,334.408c-5.663-0.107-8.923-4.737-8.923-9.665v2.045
					c0,4.928,3.995,8.923,8.923,8.923c4.928,0,8.923-3.995,8.923-8.923v-2.045C186.081,329.671,182.665,334.513,177.158,334.408z"/>
				<path style="fill:#407BFF;" d="M187.922,241.855h-21.713c-1.7,0-3.079-1.378-3.079-3.079l0,0c0-1.7,1.378-3.079,3.079-3.079
					h21.713c1.7,0,3.079,1.378,3.079,3.079l0,0C191,240.476,189.622,241.855,187.922,241.855z"/>
				<path style="opacity:0.3;fill:#FFFFFF;" d="M187.922,241.855h-21.713c-1.7,0-3.079-1.378-3.079-3.079l0,0
					c0-1.7,1.378-3.079,3.079-3.079h21.713c1.7,0,3.079,1.378,3.079,3.079l0,0C191,240.476,189.622,241.855,187.922,241.855z"/>
				<rect x="166.42" y="241.855" style="opacity:0.3;" width="21.29" height="1.188"/>
				<path style="fill:#407BFF;" d="M186.081,289.686c0,0.677-3.995,1.227-8.923,1.227c-4.928,0-8.923-0.549-8.923-1.227
					c0-0.677,3.995-1.227,8.923-1.227C182.086,288.459,186.081,289.008,186.081,289.686z"/>
				<path style="opacity:0.3;" d="M186.081,289.686c0,0.677-3.995,1.227-8.923,1.227c-4.928,0-8.923-0.549-8.923-1.227
					c0-0.677,3.995-1.227,8.923-1.227C182.086,288.459,186.081,289.008,186.081,289.686z"/>
				<path style="opacity:0.3;fill:#FFFFFF;" d="M172.675,307.121L172.675,307.121c-1.008,0-1.825-0.817-1.825-1.825v-21.515
					c0-0.876,0.623-1.628,1.483-1.792v0c1.125-0.214,2.166,0.648,2.166,1.792v21.515C174.5,306.304,173.683,307.121,172.675,307.121
					z"/>
				<circle style="opacity:0.3;fill:#FFFFFF;" cx="172.838" cy="313.267" r="1.987"/>
				<g>
					<path style="fill:#FFFFFF;" d="M183.595,299.874c0.155,6.774,0.156,13.548,0,20.322
						C183.439,313.422,183.44,306.648,183.595,299.874L183.595,299.874z"/>
				</g>
			</g>
			<rect x="163.13" y="273.268" style="fill:#263238;" width="28.874" height="5.594"/>
		</g>
		<g>
			<circle style="fill:#263238;" cx="155.219" cy="219.404" r="7.484"/>
			<g>
				<rect x="152.782" y="224.051" style="fill:#263238;" width="4.873" height="223.736"/>
				<path style="fill:#263238;" d="M195.327,447.787H115.11l0,0c0-2.814,2.281-5.095,5.094-5.095h70.028
					C193.047,442.693,195.327,444.974,195.327,447.787L195.327,447.787z"/>
			</g>
		</g>
		<g>
			<g>
				<path style="fill:#263238;" d="M142.36,276.519c7.82,0,15.641,0,23.461,0c0.965,0,0.967-1.5,0-1.5c-7.82,0-15.641,0-23.461,0
					C141.395,275.019,141.393,276.519,142.36,276.519L142.36,276.519z"/>
			</g>
		</g>
	</g>
</g>
</svg>
