<svg xmlns="http://www.w3.org/2000/svg" viewBox="0 0 512 512"><path d="M160 320h12v16c0 8.8 7.2 16 16 16h40c8.8 0 16-7.2 16-16v-16h12c17.7 0 32-14.3 32-32V64c0-17.7-14.3-32-32-32V16c0-8.8-7.2-16-16-16h-64c-8.8 0-16 7.2-16 16v16c-17.7 0-32 14.3-32 32v224c0 17.7 14.3 32 32 32zm304 128h-1.3C493.2 414 512 369.2 512 320c0-105.9-86.1-192-192-192v64c70.6 0 128 57.4 128 128s-57.4 128-128 128H48c-26.5 0-48 21.5-48 48 0 8.8 7.2 16 16 16h480c8.8 0 16-7.2 16-16 0-26.5-21.5-48-48-48zm-360-32h208c4.4 0 8-3.6 8-8v-16c0-4.4-3.6-8-8-8H104c-4.4 0-8 3.6-8 8v16c0 4.4 3.6 8 8 8z"/></svg>